<svg width="36" height="45" viewBox="0 0 36 45" fill="none" xmlns="http://www.w3.org/2000/svg">
<path d="M18.0002 4.1568C14.3121 4.1568 10.8571 5.60568 8.27053 8.23782L8.23177 8.27746C7.97794 8.53727 7.98269 8.95361 8.2424 9.20752C8.50212 9.46135 8.91854 9.4566 9.17246 9.19689L9.2099 9.15857C11.546 6.7813 14.6678 5.47217 18.0002 5.47217C24.7954 5.47217 30.3237 11.0004 30.3237 17.7957C30.3237 24.5909 24.7954 30.1192 18.0002 30.1192C11.205 30.1192 5.6767 24.5908 5.6767 17.7957C5.6767 15.5757 6.2733 13.3998 7.40199 11.5031C7.5877 11.1909 7.48531 10.7874 7.17312 10.6016C6.86085 10.4159 6.45734 10.5184 6.27163 10.8305C5.02191 12.9306 4.36133 15.3391 4.36133 17.7958C4.36133 25.3162 10.4797 31.4346 18.0001 31.4346C25.5206 31.4346 31.6389 25.3162 31.6389 17.7958C31.6389 10.2753 25.5206 4.1568 18.0002 4.1568Z" fill="black"/>
<path d="M34.658 15.0585C34.3012 14.5272 33.9642 14.0253 33.8376 13.5517C33.7025 13.0462 33.7428 12.4235 33.7856 11.7642C33.8494 10.7808 33.9154 9.76386 33.413 8.89567C32.9029 8.01396 31.9814 7.56141 31.0902 7.12371C30.5042 6.83596 29.9507 6.56411 29.5909 6.20438C29.2312 5.84455 28.9594 5.2911 28.6715 4.70505C28.2339 3.81393 27.7814 2.89239 26.8996 2.38228C26.0314 1.87998 25.0145 1.94599 24.031 2.00971C23.3717 2.05251 22.7491 2.09294 22.2435 1.95776C21.7698 1.83111 21.268 1.49414 20.7367 1.1373C19.9431 0.604248 19.0434 0 17.9998 0C16.9561 0 16.0564 0.604248 15.2626 1.13739C14.7313 1.49423 14.2295 1.8312 13.7559 1.95776C13.2504 2.09294 12.6277 2.05251 11.9684 2.00971C10.9849 1.94599 9.96813 1.87998 9.09986 2.38228C8.21814 2.89239 7.76559 3.81393 7.3279 4.70505C7.04015 5.2911 6.7683 5.84464 6.40848 6.20438C6.04874 6.56411 5.49529 6.83596 4.90924 7.12371C4.01803 7.56132 3.09658 8.01396 2.58638 8.89567C2.08399 9.76386 2.15 10.7808 2.21381 11.7643C2.25661 12.4235 2.29695 13.0462 2.16187 13.5517C2.03521 14.0253 1.69824 14.5272 1.34141 15.0585C0.808349 15.8523 0.204102 16.752 0.204102 17.7956C0.204102 18.8392 0.808261 19.7389 1.34141 20.5327C1.69815 21.064 2.03521 21.5659 2.16178 22.0395C2.29687 22.545 2.25652 23.1677 2.21372 23.827C2.14991 24.8104 2.08391 25.8273 2.58629 26.6955C3.09641 27.5773 4.01794 28.0299 4.90915 28.4675C5.49512 28.7553 6.04865 29.0271 6.40839 29.3868C6.74193 29.7204 6.99998 30.221 7.26515 30.7591L2.4882 39.5473C2.28324 39.9243 2.28913 40.3712 2.50402 40.7427C2.71892 41.1142 3.10326 41.3421 3.53226 41.3525L7.19562 41.4411L9.26237 44.4671C9.49238 44.8039 9.86539 45 10.2697 45C10.2908 45 10.312 44.9995 10.3333 44.9984C10.7619 44.9767 11.1401 44.7386 11.345 44.3616L16.3609 35.1338C16.8658 35.398 17.4097 35.5912 17.9997 35.5912C18.5896 35.5912 19.1335 35.398 19.6384 35.1338L24.6543 44.3616C24.8593 44.7387 25.2375 44.9768 25.666 44.9985C25.6874 44.9996 25.7086 45.0001 25.7296 45.0001C26.1339 45.0001 26.507 44.804 26.737 44.4672L28.8037 41.4412L32.467 41.3525C32.896 41.3422 33.2804 41.1142 33.4952 40.7428C33.7101 40.3712 33.716 39.9244 33.511 39.5474L31.7642 36.3336C31.5907 36.0144 31.1914 35.8962 30.8723 36.0699C30.5532 36.2434 30.4351 36.6427 30.6085 36.9618L32.2824 40.0412L28.7239 40.1273C28.3317 40.1368 27.9656 40.3359 27.7444 40.6598L25.7369 43.5991L20.758 34.4395C21.2814 34.088 21.7762 33.7583 22.2435 33.6334C22.7489 33.4983 23.3716 33.5386 24.0309 33.5814C25.0145 33.6452 26.0313 33.7112 26.8995 33.2089C27.3591 32.943 27.7015 32.5649 27.9865 32.138L29.1615 34.2998C29.3349 34.6189 29.734 34.7369 30.0534 34.5635C30.3726 34.39 30.4906 33.9907 30.3172 33.6716L28.734 30.759C28.9992 30.2209 29.2572 29.7204 29.5908 29.3868C29.9505 29.0271 30.504 28.7553 31.09 28.4675C31.9812 28.0299 32.9027 27.5773 33.4129 26.6955C33.9153 25.8274 33.8492 24.8104 33.7854 23.8269C33.7426 23.1677 33.7023 22.545 33.8374 22.0395C33.964 21.5658 34.301 21.064 34.6578 20.5327C35.1908 19.7389 35.7951 18.8392 35.7951 17.7956C35.7953 16.752 35.1911 15.8522 34.658 15.0585ZM10.2625 43.5991L8.25497 40.6599C8.03375 40.336 7.6676 40.1369 7.27543 40.1274L3.717 40.0413L8.01283 32.1382C8.29786 32.565 8.64028 32.9431 9.09986 33.2089C9.96813 33.7112 10.9852 33.6453 11.9684 33.5815C12.6277 33.5387 13.2504 33.4984 13.7559 33.6335C14.2232 33.7584 14.718 34.0882 15.2413 34.4396L10.2625 43.5991ZM33.566 19.7994C33.1648 20.3968 32.75 21.0145 32.5668 21.6998C32.3758 22.4142 32.4252 23.1757 32.4731 23.9121C32.5265 24.7359 32.5769 25.5141 32.2745 26.0368C31.9644 26.5727 31.2581 26.9196 30.5104 27.2869C29.8538 27.6093 29.175 27.9426 28.6609 28.4568C28.1467 28.9709 27.8134 29.6498 27.4909 30.3064C27.1237 31.0541 26.7768 31.7603 26.241 32.0704C25.7182 32.3728 24.9402 32.3223 24.1162 32.269C23.3798 32.2211 22.6184 32.1718 21.904 32.3627C21.2187 32.546 20.6011 32.9607 20.0037 33.362C19.3038 33.832 18.6428 34.2759 17.9998 34.2759C17.3568 34.2759 16.6958 33.832 15.9959 33.362C15.3985 32.9608 14.7809 32.546 14.0955 32.3627C13.7033 32.2579 13.2971 32.2255 12.8885 32.2255C12.5527 32.2255 12.2154 32.2474 11.8833 32.269C11.0593 32.3224 10.2812 32.373 9.75851 32.0705C9.22265 31.7604 8.87574 31.0541 8.50853 30.3064C8.18615 29.6498 7.85269 28.9709 7.33853 28.4568C6.82446 27.9427 6.1456 27.6093 5.48905 27.2869C4.74128 26.9197 4.03499 26.5728 3.72491 26.0368C3.42248 25.5141 3.47293 24.7359 3.52637 23.9121C3.57418 23.1758 3.62357 22.4143 3.43259 21.6999C3.24942 21.0146 2.83458 20.3968 2.43336 19.7995C1.96341 19.0996 1.51947 18.4386 1.51947 17.7957C1.51947 17.1527 1.96341 16.4917 2.43336 15.7918C2.83458 15.1944 3.24934 14.5767 3.43259 13.8914C3.62357 13.177 3.57418 12.4155 3.52637 11.6792C3.47293 10.8553 3.42248 10.0771 3.72491 9.55441C4.03499 9.01855 4.74128 8.67164 5.48905 8.30435C6.1456 7.98196 6.82446 7.64851 7.33853 7.13443C7.85261 6.62036 8.18606 5.94141 8.50853 5.28486C8.87574 4.53718 9.22265 3.83089 9.75851 3.52081C10.2812 3.21847 11.0593 3.26892 11.8833 3.32227C12.6196 3.37008 13.381 3.41947 14.0955 3.22849C14.7808 3.04523 15.3985 2.63048 15.9958 2.22926C16.6957 1.75922 17.3567 1.31528 17.9998 1.31528C18.6427 1.31528 19.3037 1.75922 20.0036 2.22917C20.601 2.63039 21.2187 3.04523 21.904 3.2284C22.6184 3.41938 23.38 3.36999 24.1163 3.32218C24.9402 3.26883 25.7184 3.21829 26.241 3.52072C26.7769 3.8308 27.1238 4.53709 27.491 5.28478C27.8134 5.94132 28.1468 6.62019 28.661 7.13435C29.175 7.64842 29.854 7.98187 30.5105 8.30426C31.2582 8.67146 31.9644 9.01837 32.2745 9.55424C32.5769 10.0769 32.5265 10.8551 32.4731 11.6789C32.4252 12.4153 32.3758 13.1767 32.5668 13.8911C32.75 14.5765 33.1648 15.1943 33.5661 15.7916C34.036 16.4914 34.4799 17.1525 34.4799 17.7954C34.4799 18.4385 34.036 19.0995 33.566 19.7994Z" fill="black"/>
<path d="M27.0315 17.1795C27.4759 16.7463 27.6328 16.1106 27.441 15.5204C27.2492 14.9302 26.7486 14.5081 26.1345 14.4189L21.6742 13.7708C21.5755 13.7564 21.4901 13.6944 21.446 13.6049L19.4513 9.56327C19.1767 9.00675 18.6205 8.66107 18 8.66107C17.3795 8.66107 16.8233 9.00675 16.5486 9.56327L14.554 13.6049C14.5098 13.6944 14.4245 13.7564 14.3257 13.7708L9.86553 14.4189C9.25144 14.5081 8.75073 14.9301 8.55895 15.5204C8.36717 16.1106 8.52406 16.7463 8.96852 17.1795L12.1959 20.3255C12.2675 20.3952 12.3 20.4955 12.2831 20.5938L11.5212 25.0361C11.4163 25.6478 11.6631 26.2543 12.1651 26.6191C12.4488 26.8252 12.7807 26.9298 13.1148 26.9298C13.372 26.9298 13.6306 26.8678 13.8696 26.7422L17.8588 24.6449C17.9472 24.5985 18.0527 24.5985 18.141 24.6449L22.1303 26.7422C22.6795 27.0309 23.3327 26.9837 23.8348 26.6191C24.3369 26.2543 24.5836 25.6477 24.4787 25.0361L23.7167 20.5938C23.6999 20.4955 23.7325 20.3952 23.8038 20.3256L27.0315 17.1795ZM22.4204 20.8162L23.1824 25.2584C23.2111 25.426 23.1076 25.5216 23.0618 25.5549C23.0159 25.5882 22.8931 25.657 22.7426 25.5779L18.7531 23.4806C18.2815 23.2326 17.7185 23.2327 17.2468 23.4806L13.2575 25.578C13.1071 25.6571 12.9842 25.5882 12.9383 25.5549C12.8925 25.5216 12.7889 25.426 12.8177 25.2584L13.5796 20.8163C13.6697 20.2912 13.4958 19.7557 13.1141 19.3836L9.88671 16.2377C9.76489 16.1189 9.79249 15.9808 9.80998 15.927C9.82747 15.8731 9.88636 15.7451 10.0547 15.7207L14.5149 15.0726C15.0422 14.996 15.4977 14.6651 15.7335 14.1873L17.7282 10.1456C17.8035 9.99314 17.9434 9.97671 18.0001 9.97671C18.0568 9.97671 18.1966 9.99314 18.2719 10.1456L20.2666 14.1873C20.5024 14.6651 20.9579 14.9961 21.4852 15.0726L25.9455 15.7207C26.1138 15.7451 26.1726 15.8731 26.1902 15.927C26.2076 15.9809 26.2352 16.119 26.1135 16.2377L22.8859 19.3837C22.5043 19.7557 22.3304 20.2912 22.4204 20.8162Z" fill="black"/>
</svg>
