<svg width="46" height="43" viewBox="0 0 46 43" fill="none" xmlns="http://www.w3.org/2000/svg">
<path d="M40.3053 4.09736C39.9405 4.09736 39.6448 4.39311 39.6448 4.75786V11.292H27.6706L27.6273 11.2027C27.9198 10.5567 28.084 9.84066 28.084 9.08656C28.084 6.47102 26.1234 4.30619 23.5949 3.9809V1.55002C23.5949 1.18528 23.2993 0.889526 22.9344 0.889526C22.5697 0.889526 22.2739 1.18528 22.2739 1.55002V3.9809C19.7455 4.30627 17.7848 6.47102 17.7848 9.08656C17.7848 9.87546 17.9636 10.6231 18.282 11.292H6.35527V4.75786C6.35527 4.39311 6.05952 4.09736 5.69478 4.09736C2.83042 4.09736 0.5 6.42778 0.5 9.29222V37.3456C0.5 37.3944 0.505625 37.4417 0.515645 37.4875C0.606875 38.7031 1.13272 39.8324 2.01154 40.6897C2.95092 41.6058 4.19088 42.1104 5.50335 42.1104H40.4966C41.8089 42.1104 43.0491 41.6059 43.9884 40.6897C44.8674 39.8324 45.393 38.7031 45.4843 37.4875C45.4943 37.4417 45.4999 37.3944 45.4999 37.3456V9.29222H45.5C45.5 6.42778 43.1696 4.09736 40.3053 4.09736ZM35.7361 30.9592C34.9757 31.1765 34.1686 31.1542 33.4073 30.8877C32.434 30.5469 31.6518 29.8476 31.2036 28.9163L24.0186 14.1202C24.542 14.0076 25.0356 13.8149 25.487 13.5561C25.5099 13.5431 25.5327 13.53 25.5552 13.5168C25.5899 13.4962 25.6241 13.4751 25.6583 13.4538C25.6942 13.4314 25.7297 13.4086 25.765 13.3852C25.7893 13.3693 25.8135 13.3533 25.8375 13.3369C25.8936 13.2985 25.9492 13.2591 26.0038 13.2185C26.0078 13.2156 26.0118 13.2128 26.0157 13.2099C26.2954 13.0011 26.5548 12.764 26.7885 12.5007L35.7361 30.9592ZM22.8754 19.6326C22.5106 19.6326 22.2149 19.9283 22.2149 20.2931V21.6408H19.8075L23.0087 15.0649L26.2019 21.6408H23.5358V20.2931C23.5359 19.9283 23.2402 19.6326 22.8754 19.6326ZM22.9346 5.25804C25.0457 5.25804 26.7631 6.97551 26.7631 9.08665C26.7631 9.76674 26.584 10.4055 26.2718 10.9598C26.2494 10.9996 26.2269 11.0393 26.2032 11.0782C26.1808 11.1149 26.1571 11.1509 26.1334 11.1868C26.1176 11.211 26.1014 11.2349 26.085 11.2587C26.0592 11.2959 26.0334 11.333 26.0063 11.3691C25.9942 11.3854 25.9812 11.4012 25.9689 11.4173C25.9162 11.4858 25.8613 11.5523 25.8041 11.6169C25.7874 11.6358 25.7708 11.655 25.7538 11.6735C25.7243 11.7057 25.6941 11.7371 25.6635 11.7682C25.6413 11.7908 25.6187 11.8128 25.596 11.8348C25.5678 11.8621 25.5398 11.8897 25.5107 11.9162C25.4616 11.9608 25.4116 12.0042 25.3604 12.0461C25.3402 12.0627 25.3192 12.0785 25.2986 12.0947C25.2569 12.1275 25.2148 12.1596 25.1718 12.1905C25.1541 12.2032 25.1364 12.216 25.1185 12.2284C24.5071 12.6529 23.7752 12.8989 23.0065 12.9131H23.0064C23.0024 12.9132 22.9984 12.9133 22.9953 12.9134C22.9945 12.9134 22.9937 12.9136 22.9929 12.9136C22.9922 12.9136 22.9915 12.9135 22.9908 12.9135L22.9345 12.9151C22.8561 12.9151 22.7782 12.9121 22.7005 12.9072C22.6829 12.9062 22.6655 12.9045 22.648 12.9033C22.5818 12.8983 22.5157 12.8919 22.4502 12.8834C22.4397 12.8821 22.4291 12.8809 22.4186 12.8794C21.681 12.778 20.9904 12.462 20.432 11.9804C20.4269 11.976 20.4218 11.9716 20.4167 11.9671C20.3582 11.9161 20.301 11.8634 20.2455 11.8086C20.2438 11.8069 20.2421 11.8054 20.2404 11.8037C20.1865 11.7504 20.1345 11.6951 20.0836 11.6385C20.0691 11.6223 20.055 11.6056 20.0409 11.5892C20.0065 11.5496 19.9731 11.5093 19.9403 11.4681C19.9231 11.4466 19.9059 11.4251 19.8892 11.4032C19.8538 11.3569 19.8195 11.3095 19.7862 11.2613C19.7715 11.2401 19.7568 11.2188 19.7426 11.1973C19.7086 11.1461 19.6758 11.094 19.6442 11.0409C19.3028 10.4684 19.1061 9.80014 19.1061 9.08665C19.106 6.97542 20.8236 5.25804 22.9346 5.25804ZM44.1791 33.8875C44.0998 33.7989 44.0184 33.7118 43.9326 33.6279C43.1163 32.8307 42.081 32.3333 40.9657 32.1922V28.3299C40.9657 27.9652 40.6701 27.6694 40.3052 27.6694C39.9404 27.6694 39.6447 27.9652 39.6447 28.3299V32.8113C39.6447 33.1761 39.9405 33.4718 40.3052 33.4718C40.3058 33.4718 40.3063 33.4718 40.3068 33.4718C40.3718 33.4718 40.4364 33.4736 40.5006 33.4767C40.5169 33.4775 40.5331 33.4793 40.5494 33.4802C40.5982 33.4833 40.6469 33.4865 40.6952 33.4913C40.7101 33.4928 40.725 33.4951 40.7398 33.4967C40.7899 33.5023 40.8399 33.5082 40.8893 33.5157C40.8994 33.5172 40.9093 33.5192 40.9193 33.5208C40.974 33.5295 41.0285 33.539 41.0824 33.55C41.0866 33.5508 41.0906 33.5519 41.0947 33.5528C42.2862 33.8004 43.2789 34.597 43.7953 35.6652C43.7967 35.6682 43.7981 35.6712 43.7995 35.6742C43.8239 35.725 43.8471 35.7764 43.8694 35.8283C43.8748 35.8411 43.8799 35.854 43.8852 35.8667C43.9025 35.9087 43.9194 35.9509 43.9353 35.9936C43.9439 36.0169 43.9521 36.0403 43.9603 36.0639C43.9717 36.0961 43.9827 36.1284 43.9933 36.161C44.004 36.1947 44.0141 36.2285 44.0241 36.2626C44.0306 36.2851 44.0371 36.3076 44.0433 36.3303C44.055 36.3735 44.0658 36.417 44.0761 36.4608C44.0793 36.4745 44.0825 36.4883 44.0856 36.502C44.0969 36.5534 44.1074 36.6051 44.1168 36.6571C44.1179 36.6634 44.1191 36.6696 44.1201 36.6759C44.1302 36.734 44.1391 36.7924 44.1467 36.8512C44.1467 36.8516 44.1467 36.8521 44.1468 36.8524C44.1624 36.9757 44.1722 37.1003 44.1761 37.2259C44.1126 39.2256 42.4999 40.7894 40.4967 40.7894H5.50344C3.50023 40.7894 1.88762 39.2255 1.82416 37.226C1.82794 37.1004 1.8377 36.9758 1.85334 36.8527C1.85343 36.8522 1.85352 36.8516 1.85352 36.8511C1.8609 36.7925 1.86986 36.7341 1.87997 36.676C1.88111 36.6697 1.88226 36.6634 1.8834 36.6571C1.89263 36.6051 1.90309 36.5535 1.91451 36.5022C1.91759 36.4883 1.92084 36.4744 1.92409 36.4606C1.9342 36.417 1.94519 36.3736 1.95679 36.3305C1.96294 36.3078 1.96953 36.2852 1.97604 36.2625C1.98588 36.2285 1.99599 36.1947 2.0068 36.1609C2.01726 36.1284 2.02833 36.0961 2.03967 36.064C2.04784 36.0404 2.05602 36.0169 2.0648 35.9935C2.08071 35.9509 2.0975 35.9088 2.11481 35.8669C2.12009 35.8541 2.12527 35.841 2.13072 35.8282C2.15296 35.7762 2.17616 35.7248 2.20051 35.6741C2.20191 35.6711 2.20323 35.6681 2.20473 35.6651C2.72135 34.5964 3.71486 33.7996 4.9071 33.5522C4.91044 33.5515 4.91378 33.5507 4.91712 33.55C4.97179 33.5389 5.02698 33.5293 5.08253 33.5204C5.09176 33.5189 5.10099 33.5171 5.11039 33.5157C5.16058 33.508 5.2112 33.502 5.262 33.4963C5.27624 33.4948 5.29039 33.4926 5.30472 33.4911C5.35367 33.4862 5.40307 33.483 5.45246 33.4799C5.46811 33.4789 5.48375 33.4773 5.49939 33.4765C5.56408 33.4732 5.6293 33.4715 5.69478 33.4715C6.05952 33.4715 6.35527 33.1758 6.35527 32.8111V17.947V17.9469C6.35527 17.5822 6.05952 17.2864 5.69478 17.2864C5.33003 17.2864 5.03428 17.5822 5.03428 17.9469V17.947V32.1923C3.91895 32.3334 2.88368 32.8307 2.06735 33.628C1.98148 33.7118 1.9001 33.7989 1.82091 33.8876V9.29222C1.82091 7.38139 3.21187 5.78908 5.03428 5.47469V15.305V15.3051C5.03428 15.6698 5.33003 15.9656 5.69478 15.9656C6.05952 15.9656 6.35527 15.6698 6.35527 15.3051V15.305V12.6129H17.7061L16.7474 14.587L16.308 15.4917C16.1486 15.8198 16.2854 16.2149 16.6136 16.3744C16.6359 16.3852 16.6584 16.3943 16.6813 16.4025C16.6873 16.4046 16.6933 16.4061 16.6993 16.4081C16.7158 16.4135 16.7325 16.4185 16.7492 16.4224C16.7574 16.4244 16.7655 16.4258 16.7737 16.4274C16.7885 16.4303 16.8034 16.433 16.8181 16.4348C16.827 16.436 16.8359 16.4368 16.8448 16.4376C16.859 16.4388 16.8731 16.4396 16.8873 16.4399C16.8921 16.44 16.897 16.4407 16.9017 16.4407C16.9052 16.4407 16.9087 16.44 16.9122 16.44C16.9379 16.4396 16.9634 16.4381 16.9888 16.4347C16.9905 16.4345 16.9921 16.4345 16.9938 16.4342C17.0205 16.4304 17.0466 16.4246 17.0726 16.4177C17.0797 16.4158 17.0867 16.4136 17.0938 16.4115C17.1149 16.405 17.1356 16.3977 17.1559 16.3891C17.161 16.387 17.1662 16.3852 17.1713 16.383C17.1955 16.3722 17.219 16.3599 17.2418 16.3461C17.2476 16.3425 17.2533 16.3387 17.259 16.335C17.277 16.3235 17.2945 16.3109 17.3114 16.2976C17.3169 16.2932 17.3225 16.289 17.328 16.2844C17.3485 16.2671 17.3683 16.2485 17.3868 16.2285C17.3902 16.2249 17.3932 16.2209 17.3965 16.2171C17.4118 16.1998 17.4263 16.1814 17.4399 16.1623C17.4443 16.156 17.4487 16.1497 17.453 16.1432C17.4686 16.1195 17.4834 16.095 17.496 16.0689L17.4961 16.0688L17.6176 15.8187L19.1781 12.6058C19.2061 12.6356 19.235 12.6642 19.2637 12.6933C19.2781 12.708 19.2923 12.723 19.3069 12.7375C19.3474 12.7776 19.3888 12.8167 19.4305 12.8554C19.4828 12.9041 19.5362 12.9514 19.5906 12.9979C19.6025 13.008 19.6142 13.0186 19.6262 13.0287C19.6733 13.0682 19.7212 13.1064 19.7696 13.1443C19.7753 13.1488 19.7809 13.1533 19.7866 13.1576C20.4195 13.6483 21.1692 13.9944 21.9864 14.1472L14.7956 28.9185C14.5376 29.4542 14.1715 29.9035 13.7357 30.2527C12.7772 31.0209 11.4823 31.3046 10.2647 30.959L16.3299 18.4706C16.3797 18.3681 16.4006 18.2589 16.3956 18.1526C16.385 17.9185 16.2498 17.6975 16.0242 17.5879C15.6961 17.4286 15.301 17.5653 15.1415 17.8935L13.3216 21.6409H10.8263C10.4615 21.6409 10.1658 21.9367 10.1658 22.3014C10.1658 22.6662 10.4615 22.9619 10.8263 22.9619H12.6801L8.76207 31.0293C8.75249 31.049 8.74396 31.0692 8.73641 31.0895C8.70635 31.1712 8.69281 31.2576 8.69624 31.3438C8.69879 31.4084 8.71074 31.4729 8.73245 31.5351C8.7902 31.7009 8.91157 31.8369 9.06978 31.913C9.34074 32.0434 9.61751 32.1481 9.89735 32.228C10.3637 32.3611 10.8386 32.4254 11.3091 32.4254C13.2386 32.4252 15.0941 31.3439 15.9846 29.4941L19.1645 22.9619H22.215V24.9789C22.215 25.3437 22.5108 25.6394 22.8755 25.6394C23.2403 25.6394 23.536 25.3437 23.536 24.9789V22.9619H26.8438L30.0146 29.4914C30.6148 30.7385 31.6648 31.6773 32.971 32.1346C33.5315 32.3309 34.1103 32.4285 34.6873 32.4285C35.3587 32.4285 36.0276 32.2962 36.6612 32.0336C36.7517 31.996 36.8415 31.9559 36.9305 31.913C37.0886 31.8369 37.2099 31.701 37.2677 31.5353C37.3256 31.3696 37.3149 31.1877 37.2384 31.0299L33.3275 22.9619H34.9246C35.2895 22.9619 35.5851 22.6662 35.5851 22.3014C35.5851 21.9367 35.2895 21.6409 34.9246 21.6409H32.6871L28.3111 12.6131H39.6447V25.6882C39.6447 26.053 39.9405 26.3487 40.3052 26.3487H40.3053C40.6701 26.3487 40.9658 26.053 40.9658 25.6882V5.47469C42.7882 5.78908 44.1791 7.3813 44.1791 9.29222V33.8875Z" fill="black"/>
</svg>
