<svg width="60" height="60" viewBox="0 0 60 60" fill="none" xmlns="http://www.w3.org/2000/svg">
<rect y="0.296875" width="60" height="59" rx="29.5" fill="black"/>
<path d="M30 14.0469C20.0156 14.0469 12 20.6562 12 28.6719C12 32.1875 13.4766 35.3516 16.0078 37.8828C15.0938 41.4688 12.1406 44.5625 12.1406 44.6328C12 44.7734 11.9297 45.0547 12 45.2656C12.1406 45.4766 12.2812 45.5469 12.5625 45.5469C17.2031 45.5469 20.7188 43.3672 22.4062 41.9609C24.7266 42.8047 27.2578 43.2969 30 43.2969C39.9141 43.2969 48 36.7578 48 28.6719C48 20.6562 39.9141 14.0469 30 14.0469ZM21 30.9219C19.7344 30.9219 18.75 29.9375 18.75 28.6719C18.75 27.4766 19.7344 26.4219 21 26.4219C22.1953 26.4219 23.25 27.4766 23.25 28.6719C23.25 29.9375 22.1953 30.9219 21 30.9219ZM30 30.9219C28.7344 30.9219 27.75 29.9375 27.75 28.6719C27.75 27.4766 28.7344 26.4219 30 26.4219C31.1953 26.4219 32.25 27.4766 32.25 28.6719C32.25 29.9375 31.1953 30.9219 30 30.9219ZM39 30.9219C37.7344 30.9219 36.75 29.9375 36.75 28.6719C36.75 27.4766 37.7344 26.4219 39 26.4219C40.1953 26.4219 41.25 27.4766 41.25 28.6719C41.25 29.9375 40.1953 30.9219 39 30.9219Z" fill="white"/>
</svg>
