<svg width="60" height="60" viewBox="0 0 60 60" fill="none" xmlns="http://www.w3.org/2000/svg">
<rect y="0.296875" width="60" height="59" rx="29.5" fill="black"/>
<path d="M46.6641 13.5547L39.3516 11.8672C38.5781 11.6562 37.7344 12.0781 37.3828 12.8516L34.0078 20.7266C33.7266 21.4297 33.9375 22.2031 34.5 22.6953L38.7891 26.2109C36.2578 31.5547 31.8281 36.0547 26.3438 38.6562L22.8281 34.3672C22.3359 33.8047 21.5625 33.5938 20.8594 33.875L12.9844 37.25C12.2109 37.6016 11.8594 38.4453 12 39.2188L13.6875 46.5312C13.8984 47.3047 14.5312 47.7969 15.375 47.7969C33.375 47.7969 48 33.2422 48 15.1719C48 14.3984 47.4375 13.7656 46.6641 13.5547Z" fill="white"/>
</svg>
