<svg width="46" height="45" viewBox="0 0 46 45" fill="none" xmlns="http://www.w3.org/2000/svg">
<path d="M15.0624 9.02152C15.4265 9.02152 15.7216 8.72647 15.7216 8.36234V6.7085H17.36C17.7241 6.7085 18.0191 6.41345 18.0191 6.04932C18.0191 5.68519 17.7241 5.39014 17.36 5.39014H15.5563C14.9206 5.39014 14.4033 5.90737 14.4033 6.54317V8.36225C14.4032 8.72638 14.6983 9.02152 15.0624 9.02152Z" fill="black"/>
<path d="M38.0801 6.7085H39.6881V8.36225C39.6881 8.72638 39.9832 9.02143 40.3473 9.02143C40.7114 9.02143 41.0065 8.72638 41.0065 8.36225V6.54317C41.0065 5.90737 40.4892 5.39014 39.8534 5.39014H38.0801C37.7159 5.39014 37.4209 5.68519 37.4209 6.04932C37.4209 6.41345 37.716 6.7085 38.0801 6.7085Z" fill="black"/>
<path d="M38.0801 31.9938H39.8534C40.4892 31.9938 41.0065 31.4765 41.0065 30.8407V29.0826C41.0065 28.7185 40.7114 28.4235 40.3473 28.4235C39.9832 28.4235 39.6881 28.7185 39.6881 29.0826V30.6754H38.0801C37.7159 30.6754 37.4209 30.9704 37.4209 31.3346C37.4209 31.6987 37.716 31.9938 38.0801 31.9938Z" fill="black"/>
<path d="M15.5564 31.9938H17.36C17.7242 31.9938 18.0192 31.6987 18.0192 31.3346C18.0192 30.9704 17.7242 30.6754 17.36 30.6754H15.7217V29.0826C15.7217 28.7185 15.4266 28.4235 15.0625 28.4235C14.6984 28.4235 14.4033 28.7185 14.4033 29.0826V30.8407C14.4034 31.4765 14.9206 31.9938 15.5564 31.9938Z" fill="black"/>
<path d="M43.7081 35.6756H10.298C10.0368 35.6756 9.8244 35.4632 9.8244 35.202V1.79191C9.8244 0.803848 9.02047 0 8.0324 0H2.29191C1.30385 0 0.5 0.803848 0.5 1.79191V12.5143C0.5 12.8784 0.795049 13.1735 1.15918 13.1735C1.52331 13.1735 1.81836 12.8784 1.81836 12.5143V1.79191C1.81836 1.53079 2.03079 1.31836 2.29191 1.31836H8.0324C8.29361 1.31836 8.50605 1.53079 8.50605 1.79191V4.99509H6.27151C5.90738 4.99509 5.61233 5.29014 5.61233 5.65427C5.61233 6.0184 5.90738 6.31345 6.27151 6.31345H8.50605V9.19556H7.13574C6.77161 9.19556 6.47656 9.49061 6.47656 9.85474C6.47656 10.2189 6.77161 10.5139 7.13574 10.5139H8.50605V13.3959H6.27151C5.90738 13.3959 5.61233 13.691 5.61233 14.0551C5.61233 14.4192 5.90738 14.7143 6.27151 14.7143H8.50605V17.5964H7.13574C6.77161 17.5964 6.47656 17.8915 6.47656 18.2556C6.47656 18.6197 6.77161 18.9148 7.13574 18.9148H8.50605V21.7968H6.27151C5.90738 21.7968 5.61233 22.0918 5.61233 22.456C5.61233 22.8201 5.90738 23.1151 6.27151 23.1151H8.50605V25.9973H7.13574C6.77161 25.9973 6.47656 26.2923 6.47656 26.6564C6.47656 27.0206 6.77161 27.3156 7.13574 27.3156H8.50605V30.1977H6.27151C5.90738 30.1977 5.61233 30.4928 5.61233 30.8569C5.61233 31.221 5.90738 31.5161 6.27151 31.5161H8.50605V35.202C8.50605 35.4549 8.55869 35.6957 8.65361 35.914L1.81836 42.7494V15.5959C1.81836 15.2318 1.52331 14.9367 1.15918 14.9367C0.795049 14.9367 0.5 15.2318 0.5 15.5959V43.2081C0.5 44.1957 1.30332 45 2.29191 45H43.7082C44.6962 45 45.5001 44.1962 45.5001 43.2081V37.4676C45.5 36.4795 44.6962 35.6756 43.7081 35.6756ZM44.1816 43.2081C44.1816 43.4692 43.9692 43.6816 43.7081 43.6816H2.75062L9.58587 36.8464C9.80419 36.9413 10.045 36.994 10.2979 36.994H13.5654V39.2298C13.5654 39.5939 13.8604 39.889 14.2246 39.889C14.5887 39.889 14.8837 39.5939 14.8837 39.2298V36.994H17.7659V38.3656C17.7659 38.7297 18.0609 39.0248 18.425 39.0248C18.7892 39.0248 19.0842 38.7297 19.0842 38.3656V36.994H21.9662V39.2298C21.9662 39.5939 22.2613 39.889 22.6254 39.889C22.9895 39.889 23.2846 39.5939 23.2846 39.2298V36.994H26.1667V38.3656C26.1667 38.7297 26.4617 39.0248 26.8259 39.0248C27.19 39.0248 27.4851 38.7297 27.4851 38.3656V36.994H30.3671V39.2298C30.3671 39.5939 30.6621 39.889 31.0263 39.889C31.3904 39.889 31.6854 39.5939 31.6854 39.2298V36.994H34.5676V38.3656C34.5676 38.7297 34.8626 39.0248 35.2267 39.0248C35.5909 39.0248 35.8859 38.7297 35.8859 38.3656V36.994H38.7679V39.2298C38.7679 39.5939 39.063 39.889 39.4271 39.889C39.7912 39.889 40.0863 39.5939 40.0863 39.2298V36.994H43.7081C43.9692 36.994 44.1816 37.2064 44.1816 37.4676V43.2081Z" fill="black"/>
<path d="M19.1683 24.7653L26.7131 29.1214C27.3249 29.4745 28.0847 29.4746 28.6962 29.1214L36.241 24.7653C36.8526 24.4123 37.2326 23.7542 37.2326 23.0479V14.3359C37.2326 13.6306 36.8534 12.9719 36.2411 12.6185L28.6963 8.26254C28.0847 7.90939 27.3248 7.90939 26.7131 8.26254L19.1684 12.6186C18.5572 12.9713 18.1768 13.6293 18.1768 14.336V23.048C18.1768 23.7542 18.5567 24.4124 19.1683 24.7653ZM19.8274 23.6236C19.6225 23.5052 19.4951 23.2847 19.4951 23.0479V14.7133L27.0455 19.0725V27.791L19.8274 23.6236ZM27.3723 9.40424C27.5773 9.28585 27.832 9.28567 28.037 9.40424L35.2551 13.5716L32.7691 15.0068C32.4538 15.1889 32.3458 15.592 32.5278 15.9073C32.7106 16.2241 33.1145 16.3297 33.4283 16.1485L35.9142 14.7133V23.0479C35.9142 23.2846 35.787 23.5052 35.5819 23.6236L28.3639 27.7909V19.0725L30.7137 17.7158C31.029 17.5338 31.137 17.1306 30.955 16.8154C30.7731 16.5001 30.3697 16.3922 30.0546 16.5741L27.7047 17.9308L20.1543 13.5716L27.3723 9.40424Z" fill="black"/>
</svg>
