<svg width="36" height="36" viewBox="0 0 36 36" fill="none" xmlns="http://www.w3.org/2000/svg">
<path d="M0 18C0 8.05888 8.05888 0 18 0C27.9411 0 36 8.05888 36 18C36 27.9411 27.9411 36 18 36C8.05888 36 0 27.9411 0 18Z" fill="white"/>
<path d="M13.6406 25V14.4883H10.3711V25H13.6406ZM11.9883 13.082C13.043 13.082 13.8867 12.2031 13.8867 11.1484C13.8867 10.1289 13.043 9.28516 11.9883 9.28516C10.9688 9.28516 10.125 10.1289 10.125 11.1484C10.125 12.2031 10.9688 13.082 11.9883 13.082ZM25.8398 25H25.875V19.2344C25.875 16.4219 25.2422 14.2422 21.9375 14.2422C20.3555 14.2422 19.3008 15.1211 18.8438 15.9297H18.8086V14.4883H15.6797V25H18.9492V19.7969C18.9492 18.4258 19.1953 17.125 20.8828 17.125C22.5703 17.125 22.6055 18.6719 22.6055 19.9023V25H25.8398Z" fill="black"/>
</svg>
