<svg width="154" height="50" viewBox="0 0 154 50" fill="none" xmlns="http://www.w3.org/2000/svg">
<path d="M18.8652 0H20.2274C24.9563 0.102804 29.6082 2.00467 32.9493 5.37149C31.7157 6.63084 30.4563 7.83878 29.2484 9.09813C27.3722 7.40187 25.1105 6.09112 22.6433 5.6285C18.9937 4.85747 15.0615 5.5514 12.0031 7.63317C8.66196 9.81775 6.40028 13.5187 5.91196 17.4766C5.37224 21.3832 6.47738 25.4953 9.02177 28.528C11.4634 31.4836 15.19 33.3341 19.0451 33.4626C22.6433 33.6682 26.3956 32.5631 29.0171 30.0444C31.0732 28.271 32.0241 25.5724 32.3325 22.9509C28.0662 22.9509 23.7998 22.9766 19.5334 22.9509V17.6565H37.4984C38.4236 23.3364 37.0872 29.736 32.7694 33.7967C29.8909 36.6752 25.9073 38.3715 21.8465 38.7056C17.9143 39.0911 13.8535 38.3458 10.3582 36.4439C6.16897 34.2079 2.82785 30.4299 1.18299 25.9836C-0.359065 21.8972 -0.384766 17.271 1.05449 13.1589C2.36523 9.40654 4.88392 6.09112 8.12224 3.77804C11.2321 1.49065 15.0101 0.231308 18.8652 0Z" fill="black"/>
<path d="M121.926 1.33643H127.426V38.0373C125.601 38.0373 123.751 38.063 121.926 38.0116C121.951 25.8037 121.926 13.5701 121.926 1.33643Z" fill="black"/>
<path d="M49.7324 14.0586C53.1249 13.416 56.8001 14.1357 59.6015 16.166C62.1459 17.9651 63.9193 20.7922 64.459 23.8763C65.1529 27.4487 64.2791 31.3553 61.966 34.1824C59.473 37.3436 55.3866 39.0398 51.4029 38.7828C47.7534 38.5772 44.2067 36.7525 42.0478 33.7712C39.6062 30.4814 39.0151 25.9581 40.3515 22.1029C41.688 17.9651 45.466 14.8039 49.7324 14.0586ZM50.5034 18.9417C49.1155 19.3015 47.8305 20.0983 46.9053 21.2291C44.4123 24.2104 44.5665 29.0679 47.3165 31.8436C48.8842 33.437 51.2487 34.1824 53.4333 33.7455C55.4637 33.3856 57.237 32.0235 58.2137 30.2244C59.9099 27.166 59.4216 22.9511 56.8258 20.5609C55.1553 19.0188 52.7137 18.3763 50.5034 18.9417Z" fill="black"/>
<path d="M76.9753 14.0585C80.8561 13.3132 85.0967 14.3926 88.001 17.1169C92.7299 21.3576 93.2439 29.2991 89.2089 34.1823C86.7673 37.2664 82.8094 38.9627 78.9028 38.7828C75.1762 38.68 71.501 36.8295 69.2907 33.7711C66.7977 30.4043 66.258 25.7781 67.6715 21.8459C69.0851 17.8365 72.786 14.7781 76.9753 14.0585ZM77.7463 18.9417C76.3584 19.3015 75.0734 20.0982 74.1482 21.2033C71.6809 24.1333 71.7837 28.9136 74.4309 31.715C75.9986 33.3856 78.4402 34.208 80.7019 33.7454C82.7066 33.3599 84.5056 32.0234 85.4823 30.2244C87.1528 27.1403 86.6645 22.9253 84.043 20.5351C82.3724 18.9931 79.9309 18.3762 77.7463 18.9417Z" fill="black"/>
<path d="M100.081 15.549C103.036 13.6985 106.968 13.1845 110.155 14.7779C111.158 15.2149 111.98 15.9602 112.777 16.7055C112.803 16.0116 112.777 15.292 112.803 14.5723C114.525 14.598 116.247 14.5723 117.994 14.598V37.2662C117.968 40.6845 117.095 44.3083 114.627 46.8013C111.929 49.5513 107.791 50.3994 104.064 49.834C100.081 49.2429 96.611 46.3387 95.0689 42.6634C96.611 41.9181 98.2302 41.327 99.8236 40.6331C100.723 42.7405 102.548 44.5396 104.835 44.9508C107.123 45.362 109.77 44.7966 111.261 42.8948C112.854 40.9415 112.854 38.2686 112.777 35.8784C111.595 37.0349 110.232 38.063 108.588 38.4485C105.015 39.4508 101.083 38.2172 98.333 35.8013C95.5573 33.3854 93.9124 29.6588 94.0666 25.9578C94.1437 21.7686 96.5082 17.7335 100.081 15.549ZM105.401 18.8387C103.833 19.0957 102.368 19.9695 101.366 21.1775C98.9498 24.056 98.9498 28.6564 101.391 31.4835C102.779 33.1541 105.015 34.0793 107.174 33.848C109.204 33.6424 111.081 32.3574 112.083 30.584C113.779 27.577 113.497 23.4906 111.209 20.8691C109.796 19.2499 107.534 18.4532 105.401 18.8387Z" fill="black"/>
<path d="M134.032 16.8596C137.116 13.9811 141.87 13.0045 145.828 14.5209C149.581 15.9344 151.971 19.5068 153.179 23.1821C147.602 25.4952 142.05 27.7825 136.473 30.0956C137.244 31.5606 138.426 32.897 140.02 33.4367C142.256 34.2335 144.929 33.9508 146.805 32.4601C147.55 31.8947 148.141 31.1494 148.707 30.4297C150.12 31.3807 151.534 32.3059 152.947 33.2568C150.943 36.2638 147.576 38.3713 143.952 38.7054C139.943 39.1937 135.676 37.6517 133.081 34.5162C128.814 29.5816 129.225 21.3059 134.032 16.8596ZM136.782 21.6143C135.908 22.8737 135.548 24.4157 135.574 25.9321C139.3 24.39 143.027 22.848 146.754 21.2802C146.137 19.841 144.646 18.9671 143.13 18.7358C140.688 18.2989 138.144 19.6096 136.782 21.6143Z" fill="black"/>
</svg>
