<svg width="235" height="50" viewBox="0 0 235 50" fill="none" xmlns="http://www.w3.org/2000/svg">
<path d="M23.7586 23.7586H0V0H23.7586V23.7586Z" fill="black"/>
<path d="M49.9906 23.7586H26.2324V0H49.9906V23.7586Z" fill="black"/>
<path d="M23.7579 50.0001H0V26.2417H23.7579V50.0001Z" fill="black"/>
<path d="M49.9906 50.0001H26.2324V26.2417H49.9906V50.0001Z" fill="black"/>
<path d="M234.215 23.4661V19.3473H229.1V12.9442L228.928 12.9972L224.124 14.4671L224.029 14.4958V19.3476H216.446V16.6447C216.446 15.3862 216.728 14.4231 217.282 13.7808C217.833 13.1462 218.621 12.8236 219.626 12.8236C220.348 12.8236 221.096 12.9938 221.848 13.3293L222.037 13.4136V9.07593L221.948 9.0433C221.246 8.79092 220.291 8.66382 219.108 8.66382C217.616 8.66382 216.26 8.98848 215.078 9.6319C213.895 10.2762 212.965 11.196 212.313 12.3655C211.663 13.5337 211.334 14.8828 211.334 16.3758V19.3473H207.772V23.4661H211.334V40.8179H216.446V23.4661H224.029V34.4929C224.029 39.0342 226.171 41.3356 230.396 41.3356C231.09 41.3356 231.821 41.2543 232.567 41.095C233.326 40.9314 233.843 40.7681 234.148 40.5936L234.215 40.5538V36.3969L234.007 36.5344C233.73 36.7193 233.384 36.8704 232.979 36.9828C232.572 37.0972 232.232 37.1545 231.969 37.1545C230.979 37.1545 230.247 36.8878 229.793 36.3615C229.333 35.8305 229.1 34.9018 229.1 33.6028V23.4661H234.215ZM196.355 37.1552C194.499 37.1552 193.036 36.5398 192.005 35.3278C190.967 34.1096 190.442 32.3728 190.442 30.1661C190.442 27.8894 190.967 26.1076 192.005 24.8679C193.037 23.6363 194.486 23.0112 196.313 23.0112C198.086 23.0112 199.497 23.6082 200.508 24.7865C201.524 25.971 202.039 27.7386 202.039 30.0417C202.039 32.3732 201.555 34.1642 200.598 35.3622C199.649 36.5512 198.221 37.1552 196.355 37.1552ZM196.582 18.8301C193.041 18.8301 190.229 19.8675 188.224 21.9136C186.221 23.9598 185.205 26.7916 185.205 30.3308C185.205 33.6925 186.196 36.3964 188.153 38.3664C190.109 40.3369 192.771 41.3352 196.064 41.3352C199.496 41.3352 202.252 40.2832 204.256 38.2089C206.26 36.1368 207.275 33.3318 207.275 29.8752C207.275 26.461 206.323 23.7369 204.443 21.7801C202.562 19.8224 199.917 18.8301 196.582 18.8301ZM176.962 18.8301C174.553 18.8301 172.561 19.4461 171.039 20.6607C169.508 21.8825 168.732 23.485 168.732 25.4241C168.732 26.432 168.899 27.3274 169.229 28.0868C169.561 28.8487 170.075 29.5195 170.757 30.0825C171.434 30.641 172.48 31.226 173.865 31.8211C175.029 32.3003 175.898 32.7056 176.449 33.025C176.989 33.3381 177.371 33.6528 177.587 33.9594C177.797 34.2593 177.904 34.6698 177.904 35.1764C177.904 36.6189 176.824 37.3208 174.601 37.3208C173.776 37.3208 172.836 37.1486 171.806 36.8092C170.783 36.475 169.818 35.9855 168.943 35.3579L168.731 35.2057V40.1281L168.809 40.1643C169.533 40.4983 170.445 40.7799 171.52 41.0014C172.593 41.2232 173.568 41.3361 174.414 41.3361C177.028 41.3361 179.132 40.7171 180.668 39.4953C182.213 38.2651 182.996 36.6248 182.996 34.6186C182.996 33.1714 182.575 31.9303 181.744 30.9294C180.918 29.9366 179.486 29.0252 177.488 28.2195C175.896 27.5807 174.876 27.0503 174.456 26.6432C174.05 26.2499 173.844 25.6937 173.844 24.9893C173.844 24.3649 174.098 23.8647 174.62 23.4596C175.146 23.0525 175.878 22.8454 176.796 22.8454C177.648 22.8454 178.519 22.98 179.386 23.2437C180.252 23.5074 181.013 23.8606 181.648 24.2926L181.857 24.4354V19.766L181.777 19.7316C181.191 19.4803 180.418 19.2653 179.48 19.0909C178.546 18.9176 177.699 18.8301 176.962 18.8301ZM155.403 37.1552C153.548 37.1552 152.084 36.5398 151.053 35.3278C150.016 34.1096 149.491 32.3732 149.491 30.1661C149.491 27.8894 150.016 26.1076 151.055 24.8679C152.085 23.6363 153.534 23.0112 155.362 23.0112C157.134 23.0112 158.545 23.6082 159.557 24.7865C160.573 25.971 161.088 27.7386 161.088 30.0417C161.088 32.3732 160.603 34.1642 159.647 35.3622C158.697 36.5512 157.27 37.1552 155.403 37.1552ZM155.631 18.8301C152.09 18.8301 149.277 19.8675 147.274 21.9136C145.27 23.9598 144.253 26.7916 144.253 30.3308C144.253 33.6938 145.246 36.3964 147.202 38.3664C149.158 40.3369 151.82 41.3352 155.113 41.3352C158.545 41.3352 161.301 40.2832 163.305 38.2089C165.309 36.1368 166.325 33.3318 166.325 29.8752C166.325 26.461 165.372 23.7369 163.491 21.7801C161.61 19.8224 158.965 18.8301 155.631 18.8301ZM136.492 23.0656V19.3473H131.442V40.8175H136.492V29.8347C136.492 27.9672 136.916 26.4329 137.751 25.2741C138.576 24.1291 139.675 23.5488 141.018 23.5488C141.473 23.5488 141.983 23.6238 142.536 23.7722C143.084 23.9197 143.48 24.0799 143.714 24.2484L143.926 24.4023V19.3106L143.844 19.2755C143.374 19.0757 142.709 18.9749 141.867 18.9749C140.598 18.9749 139.462 19.3827 138.489 20.1856C137.635 20.8913 137.018 21.859 136.546 23.0656H136.492ZM122.398 18.8301C120.081 18.8301 118.014 19.327 116.256 20.3064C114.495 21.288 113.132 22.6895 112.205 24.4716C111.283 26.2494 110.814 28.326 110.814 30.6419C110.814 32.6705 111.268 34.5321 112.166 36.1728C113.065 37.8163 114.336 39.102 115.945 39.9937C117.553 40.8843 119.41 41.3358 121.467 41.3358C123.867 41.3358 125.916 40.856 127.559 39.9097L127.626 39.8716V35.2446L127.413 35.3996C126.669 35.9417 125.837 36.3745 124.943 36.6862C124.05 36.9977 123.236 37.1552 122.522 37.1552C120.541 37.1552 118.95 36.5351 117.795 35.3126C116.638 34.0885 116.051 32.3696 116.051 30.2067C116.051 28.0301 116.663 26.2671 117.869 24.9662C119.071 23.6691 120.665 23.0112 122.606 23.0112C124.266 23.0112 125.883 23.5733 127.414 24.6834L127.626 24.8373V19.962L127.557 19.9235C126.981 19.6011 126.196 19.3349 125.221 19.133C124.25 18.9316 123.3 18.8301 122.398 18.8301ZM107.336 19.3476H102.285V40.8175H107.336V19.3476ZM104.862 10.2012C104.031 10.2012 103.306 10.4842 102.71 11.0449C102.112 11.6072 101.809 12.3152 101.809 13.1508C101.809 13.9732 102.109 14.6683 102.701 15.2156C103.29 15.7614 104.017 16.038 104.863 16.038C105.708 16.038 106.438 15.7614 107.033 15.2165C107.633 14.6683 107.937 13.9734 107.937 13.1508C107.937 12.3445 107.641 11.6437 107.058 11.0676C106.476 10.4926 105.737 10.2012 104.862 10.2012ZM92.2612 17.7635V40.8175H97.4154V10.8585H90.2818L81.2145 33.1111L72.4153 10.8585H64.9912V40.8172H69.8348V17.7612H70.0011L79.2928 40.8175H82.9481L92.0949 17.7635H92.2612Z" fill="black"/>
</svg>
