<svg width="115" height="56" viewBox="0 0 115 56" fill="none" xmlns="http://www.w3.org/2000/svg">
<path d="M34.7544 1.26867C36.2651 1.24285 37.6179 1.37452 38.9324 1.80051C39.7808 2.07418 40.5731 2.46662 41.3272 2.95715C42.5271 3.73685 43.62 4.64306 44.5855 5.70159C46.2287 7.50625 47.6528 9.47098 48.733 11.6732C49.3469 12.928 49.7724 14.2395 49.9329 15.6466C50.0042 16.2791 50.2055 16.9143 50.0883 17.5442C49.8972 18.5769 49.9278 19.6277 49.6985 20.6604C49.4539 21.7628 49.1584 22.8369 48.7304 23.8773C48.175 25.225 47.5076 26.5107 46.649 27.6829C46.1676 28.3412 45.6861 29.0099 45.118 29.5882C44.4352 30.2827 43.6225 30.843 42.9347 31.5323C41.9437 32.5263 40.7234 33.1149 39.4878 33.6803C38.9095 33.9463 38.2854 34.1115 37.6841 34.3258C37.5899 34.3594 37.5007 34.4032 37.4141 34.4523C36.8256 34.7931 36.1785 34.9532 35.5212 35.0745C35.4015 35.0952 35.2639 35.1003 35.1722 35.1649C34.436 35.6786 33.5596 35.8361 32.7418 36.1382C31.3024 36.67 29.8427 37.1425 28.3829 37.6124C27.69 37.8344 26.9767 37.9842 26.2786 38.1855C25.6163 38.374 24.9641 38.5935 24.3043 38.7819C23.1171 39.1176 21.9223 39.4351 20.7351 39.7708C19.6626 40.0728 18.5977 40.4007 17.5277 40.7002C17.0793 40.8267 16.6208 40.9171 16.1622 41.01C15.7164 41.103 15.3113 41.2734 14.9699 41.5858C14.7992 41.7432 14.7916 41.9007 14.9547 42.0634C15.0566 42.1641 15.1559 42.2751 15.2782 42.3448C15.9125 42.7037 16.5571 43.0419 17.1889 43.4033C18.8524 44.3586 20.6103 45.1409 22.1643 46.3052C23.3183 47.1701 24.4673 48.0325 25.5347 49.0135C26.89 50.258 28.0976 51.6366 29.2109 53.1031C29.5191 53.511 29.8045 53.937 30.1 54.3552C30.1229 54.3888 30.156 54.4172 30.1764 54.4533C30.3471 54.7941 30.6324 55.1169 30.3879 55.5377C30.1637 55.9275 29.7994 55.9998 29.3918 55.9843C28.923 55.9689 28.4543 55.9973 27.9855 55.9689C26.7881 55.8992 25.764 55.4602 24.9284 54.5514C23.5476 53.0514 22.0598 51.6547 20.4727 50.3819C19.2499 49.4008 17.8869 48.6314 16.4832 47.9421C15.1406 47.2837 13.793 46.6254 12.6236 45.6727C11.6734 44.9008 10.8021 44.0488 10.3079 42.8741C9.82383 41.7226 9.84167 40.5995 10.4225 39.4945C10.6543 39.0556 10.9983 38.7613 11.5103 38.7122C12.0173 38.6632 12.5243 38.6167 13.0287 38.5573C14.0579 38.4308 15.0897 38.3353 16.1087 38.1546C17.1252 37.9764 18.1264 37.7157 19.1301 37.4781C19.8944 37.2974 20.6663 37.1348 21.4153 36.9024C22.2993 36.6262 23.1655 36.2983 24.0317 35.9678C25.1883 35.5263 26.3423 35.0797 27.4811 34.5969C28.5918 34.127 29.6924 33.6261 30.7827 33.1046C31.6387 32.6967 32.4514 32.1829 33.3227 31.8189C34.5328 31.3154 35.7072 30.7423 36.846 30.102C38.0994 29.3972 39.3426 28.6536 40.5119 27.8145C41.4189 27.1665 42.173 26.3197 42.8532 25.4135C43.9486 23.9548 44.6849 22.3257 45.2479 20.601C45.8568 18.7344 46.0453 16.8084 45.816 14.8721C45.6377 13.3746 45.0772 11.9727 44.3002 10.6741C43.3143 9.02433 42.0328 7.61984 40.5425 6.45288C38.4229 4.79279 36.0206 4.3255 33.4118 5.05614C32.8641 5.20847 32.2986 5.29108 31.7432 5.41759C31.2872 5.52086 30.8337 5.6293 30.3828 5.74806C29.8936 5.87457 29.4147 6.03721 28.9205 6.14049C28.3473 6.26183 27.7588 6.31088 27.1881 6.43739C26.5003 6.58971 25.8048 6.7472 25.1424 6.98472C23.5476 7.55272 22.0879 8.37373 20.7784 9.47357C19.2906 10.7206 17.9455 12.1018 16.7023 13.5941C15.6196 14.8953 14.5394 16.1991 13.3879 17.4384C12.1396 18.7809 10.7843 20.015 9.33979 21.1458C8.0227 22.1759 6.63427 23.0873 5.14903 23.8386C4.13764 24.3498 3.0753 24.7422 1.9773 25.034C1.88049 25.0598 1.78878 25.1062 1.69452 25.1424C0.86146 25.4574 0.0946392 24.9178 0.0385925 24.0167C-0.0149066 23.157 0.425824 22.527 0.937887 21.9461C1.21302 21.6338 1.59007 21.4014 1.94927 21.1768C3.91346 19.9504 5.90057 18.7577 7.62528 17.1879C8.9169 16.0106 10.1194 14.743 11.2428 13.3953C11.9995 12.4891 12.7612 11.588 13.5484 10.7077C14.3483 9.81178 15.1686 8.93139 16.0043 8.06649C17.6194 6.3935 19.4486 5.03032 21.5911 4.11379C22.898 3.55354 24.2457 3.13271 25.6315 2.83064C26.4952 2.64217 27.3435 2.38141 28.2046 2.17229C28.6759 2.05869 29.1599 1.98382 29.6363 1.89346C31.3687 1.56041 33.1061 1.20154 34.7544 1.26867Z" fill="white"/>
<path d="M0.0395109 32.3991C0.50317 32.3991 0.870021 32.35 1.22159 32.4068C2.52849 32.6185 3.77681 32.4326 4.95888 31.8517C5.62889 31.5239 6.27598 31.1443 6.91542 30.7622C7.85547 30.202 8.76241 29.5824 9.79418 29.1977C10.7215 28.8517 11.6412 28.4799 12.5838 28.183C13.1213 28.0152 13.6971 27.9636 14.2575 27.8836C17.8267 27.3775 21.4111 27.708 24.9905 27.7132C26.4757 27.7157 27.9635 27.6899 29.4462 27.5944C30.2257 27.5453 30.9951 27.3181 31.767 27.171C32.302 27.0703 32.8523 27.0083 33.372 26.856C34.1694 26.6236 34.9744 26.3861 35.7285 26.0453C36.7221 25.5987 37.6952 25.0875 38.6378 24.5376C39.9091 23.7914 41.002 22.8155 41.7739 21.5375C42.2044 20.825 42.556 20.0375 42.5713 19.17C42.584 18.3878 42.6452 17.5822 42.4949 16.8258C42.314 15.9041 41.9573 15.0108 41.43 14.213C40.304 12.5013 38.8697 11.1768 36.9157 10.4875C35.9807 10.157 35.0279 9.94018 34.0522 10.0718C33.1351 10.1958 32.2154 10.3378 31.3238 10.6321C29.3341 11.2904 27.5865 12.367 25.9178 13.627C23.2123 15.6691 20.9093 18.1425 18.5477 20.559C17.2662 21.8706 16.0026 23.2079 14.6346 24.4265C13.0551 25.8336 11.3227 27.0574 9.45026 28.0488C8.27073 28.6736 7.05808 29.2183 5.79449 29.6624C4.75507 30.0264 3.71312 30.3259 2.62785 30.4911C2.24826 30.5505 1.87886 30.6925 1.49927 30.7106C0.653477 30.7493 0.0904624 30.1194 0.0165827 29.27C-0.0674873 28.2708 0.640739 27.4601 1.32859 27.2071C1.77951 27.0393 2.27628 27.0109 2.75268 26.9102C3.93985 26.6624 5.13212 26.4532 6.23522 25.8956C6.99185 25.5135 7.79433 25.2166 8.55351 24.8396C9.80692 24.2174 10.9457 23.4093 12.0717 22.5728C14.2473 20.954 16.1784 19.0564 18.1248 17.1795C19.1336 16.2062 20.0787 15.1683 21.1003 14.2104C22.6187 12.7879 24.2287 11.4712 26.0121 10.4023C26.7381 9.966 27.533 9.63294 28.3227 9.32055C29.2194 8.96685 30.1315 8.62605 31.0639 8.38852C32.6103 7.99609 34.2025 7.81537 35.7795 8.10711C37.1577 8.36271 38.3984 9.01331 39.5269 9.87305C41.2644 11.1975 42.5942 12.8524 43.4451 14.8714C43.7738 15.6511 44.0897 16.4669 44.0591 17.355C44.0514 17.5564 44.1177 17.7604 44.1432 17.9669C44.1712 18.2122 44.2247 18.4601 44.2068 18.7027C44.0234 21.0444 43.091 22.9911 41.272 24.4911C40.1842 25.387 39.0276 26.1744 37.7946 26.8302C37.122 27.1891 36.4215 27.504 35.6623 27.6899C34.9056 27.8732 34.1872 28.214 33.4433 28.4645C33.0255 28.6064 32.6001 28.7407 32.167 28.8233C31.0104 29.0428 29.8512 29.239 28.6896 29.43C27.6476 29.6004 26.6056 29.7837 25.556 29.8973C24.2619 30.0368 22.9575 30.0936 21.6633 30.2226C20.4532 30.344 19.2482 30.5066 18.0407 30.6667C17.3579 30.7571 16.6701 30.8423 15.9975 30.9843C15.2052 31.1495 14.418 31.3431 13.6436 31.5755C12.4207 31.9421 11.2106 32.3449 9.99799 32.745C9.36364 32.9542 8.74967 33.2304 8.10769 33.4086C6.78295 33.7778 5.47859 34.2141 4.0927 34.3819C3.24436 34.4852 2.40366 34.5704 1.55277 34.5523C1.19611 34.5445 0.841997 34.4309 0.487884 34.3561C0.179627 34.2915 0.0522484 34.0592 0.0420581 33.77C0.0267726 33.3311 0.0395109 32.9025 0.0395109 32.3991Z" fill="white"/>
<path d="M41.2921 0.354262C41.2487 0.158046 41.343 0.0341208 41.5417 0.031539C42.6423 0.0289573 43.753 -0.0588248 44.8383 0.0702642C46.084 0.217426 47.177 0.816405 48.1399 1.65807C49.4443 2.80179 50.7053 3.98425 51.8594 5.2803C52.881 6.4292 53.737 7.70201 54.3586 9.11941C54.7127 9.92751 54.9955 10.7666 55.026 11.6676C55.0388 12.0213 55.1458 12.3286 55.3598 12.6358C55.5585 12.9224 55.6782 13.3122 55.7011 13.6659C55.7648 14.6522 56.0909 15.6126 55.9763 16.6092C55.8591 17.629 55.719 18.6488 55.5916 19.6686C55.5279 20.1772 55.4336 20.6677 55.1712 21.1273C55.0566 21.3287 55.0693 21.6075 55.0311 21.8502C54.9318 22.5008 54.9012 23.172 54.7254 23.7994C54.4987 24.6075 54.2108 25.4079 53.8491 26.1643C53.258 27.3984 52.5855 28.5912 51.946 29.7995C51.89 29.9053 51.8186 30.0086 51.7371 30.099C51.0926 30.8244 50.5754 31.648 49.9844 32.4148C49.0851 33.5818 48.0355 34.5938 46.8789 35.5104C46.3617 35.9209 45.8904 36.4011 45.3427 36.7909C44.0129 37.7359 42.5913 38.5078 41.0959 39.1378C40.5201 39.3805 39.9087 39.5354 39.31 39.7213C38.2452 40.0491 37.1803 40.3744 36.1128 40.6894C35.7256 40.803 35.3307 40.8934 34.9359 40.976C34.4034 41.087 33.8633 41.1671 33.3334 41.2807C32.1819 41.5311 31.0304 41.7789 29.884 42.0603C29.5605 42.1404 29.2191 42.2772 29.079 42.7548C29.3133 42.933 29.5401 43.1912 29.8229 43.3022C30.4521 43.5475 30.9413 43.9812 31.3922 44.4408C32.4749 45.5432 33.2468 46.8625 33.8557 48.2876C34.4442 49.6611 34.9409 51.0656 35.3817 52.4933C35.5804 53.1362 35.8479 53.7584 36.0823 54.3909C36.1179 54.4865 36.1409 54.5897 36.1587 54.6904C36.3217 55.6276 35.639 56.2292 34.7397 55.9168C33.8251 55.5966 33.1424 55.0106 32.6711 54.125C31.8023 52.4985 31.1043 50.7971 30.4139 49.0931C29.9044 47.841 29.107 46.8263 28.0854 45.9847C27.4715 45.4786 26.8295 45.0113 26.19 44.5363C25.5302 44.0457 24.799 43.7256 23.9889 43.5681C23.3724 43.4493 22.7661 43.2867 22.1598 43.1266C21.7267 43.013 21.4643 42.68 21.4668 42.3004C21.4694 41.9132 21.8235 41.451 22.2209 41.3581C22.4171 41.3116 22.626 41.3116 22.8272 41.3065C23.4998 41.2884 24.1749 41.3142 24.8424 41.2548C26.0958 41.1438 27.3466 40.9967 28.5975 40.8469C29.3618 40.7565 30.1235 40.6455 30.8852 40.5216C31.3463 40.4467 31.8023 40.3409 32.2533 40.2195C33.4251 39.9046 34.6098 39.6257 35.7562 39.2385C37.1573 38.7634 38.5254 38.198 39.8425 37.5112C41.0271 36.8942 42.1735 36.2204 43.2282 35.3916C43.8091 34.9346 44.4485 34.5345 44.9555 34.0026C45.2535 33.6902 45.5414 33.3417 45.8267 33.006C46.3821 32.3529 46.9579 31.7152 47.4495 31.0155C48.3055 29.8021 49.1437 28.5731 49.9181 27.3055C50.6187 26.1592 51.2429 24.9638 51.8645 23.7684C52.5243 22.5008 53.0797 21.1737 53.4185 19.7847C53.8134 18.1686 54.165 16.524 53.9764 14.8381C53.7828 13.0979 53.4287 11.3991 52.6441 9.80874C51.8314 8.16156 50.6238 6.86552 49.3118 5.63659C47.7553 4.17788 45.9949 3.02124 44.181 1.93948C43.2333 1.37665 42.2576 0.883527 41.2921 0.354262Z" fill="white"/>
<path d="M19.1961 25.2916C19.0381 24.9017 19.2139 24.7417 19.4508 24.6306C19.5578 24.5816 19.6878 24.5764 19.8075 24.5687C21.7182 24.4654 23.6289 24.3983 25.537 24.2563C26.4618 24.1866 27.3763 23.9516 28.3011 23.8484C29.4424 23.7219 30.5353 23.4017 31.6053 23.0145C33.0523 22.4904 34.4764 21.8836 35.5795 20.7425C36.2674 20.0325 36.8533 19.2528 36.9782 18.2098C37.0036 17.9903 37.1539 17.7786 37.1539 17.5617C37.159 16.3018 36.6342 15.3569 35.2611 15.2356C34.5529 15.1736 33.8243 15.1478 33.1262 15.251C32.4154 15.3543 31.7123 15.5867 31.0398 15.85C29.7991 16.3354 28.7801 17.19 27.7254 17.9877C27.0961 18.4654 26.421 18.8784 25.7663 19.3199C25.379 19.5807 24.9816 19.8285 24.602 20.1022C24.467 20.2003 24.3753 20.3604 24.1817 20.5902C24.5001 20.6263 24.6937 20.6676 24.8899 20.6702C25.5803 20.6728 26.2656 20.6702 26.9509 20.4972C27.6184 20.3268 28.3215 20.3113 28.9966 20.1693C30.2347 19.906 31.427 19.5007 32.4053 18.6461C32.8154 18.2898 33.1797 17.869 33.5236 17.4456C33.7045 17.2235 33.8395 17.0041 34.1605 17.1383C34.4102 17.2442 34.5911 17.7037 34.5147 17.9748C34.293 18.7494 33.8574 19.3845 33.2128 19.8414C32.1785 20.5773 31.0601 21.1582 29.822 21.4576C29.0348 21.6487 28.2272 21.752 27.4477 21.9611C26.1229 22.3174 24.7804 22.2167 23.4429 22.1625C22.7831 22.1366 22.2277 21.832 21.8481 21.2201C21.5169 20.6883 21.5832 20.159 21.7819 19.6401C22.0239 18.9998 22.4901 18.4989 22.9894 18.0549C23.9626 17.19 24.9587 16.3483 25.965 15.5221C26.7828 14.8509 27.6158 14.1925 28.4693 13.5703C29.259 12.992 30.1405 12.6202 31.0984 12.3672C32.4944 11.998 33.8548 12.2278 35.2076 12.4653C36.033 12.6099 36.8584 12.8629 37.5743 13.3715C38.3615 13.9292 38.9169 14.6159 39.2175 15.5789C39.4671 16.3767 39.5308 17.1693 39.4391 17.9567C39.3296 18.912 39.0315 19.8363 38.5449 20.6857C37.6151 22.3096 36.1578 23.2752 34.5223 24.0033C33.4319 24.4912 32.2932 24.8294 31.1187 25.0799C30.2678 25.2606 29.4144 25.4207 28.5584 25.5704C26.6299 25.9138 24.6988 25.7925 22.7729 25.715C21.5653 25.6556 20.3629 25.431 19.1961 25.2916Z" fill="white"/>
<path d="M54.6719 35.3218C54.7814 35.5206 54.891 35.6393 54.9113 35.7684C55.0795 36.8192 55.2909 37.8545 55.1126 38.944C54.8859 40.3175 54.142 41.3477 53.2554 42.3391C52.2924 43.4182 51.4135 44.5749 50.4403 45.6437C49.8417 46.3021 49.1334 46.8598 48.4736 47.4613C47.9488 47.9389 47.3145 48.3133 47.0087 48.9923C46.8381 49.3744 46.647 49.7849 46.6266 50.1928C46.5604 51.4295 46.5604 52.6688 46.5578 53.908C46.5578 54.1894 46.6139 54.4812 46.6903 54.7548C46.8457 55.3125 46.4814 55.8779 45.9005 55.9631C45.3681 56.0406 44.8841 55.8469 44.4433 55.6146C43.5975 55.1705 43.0931 54.4295 42.79 53.5053C42.5428 52.7488 42.497 51.9691 42.4027 51.2023C42.2983 50.3684 42.5454 49.5422 42.7416 48.7212C42.9887 47.6833 43.5568 46.8623 44.2446 46.1059C44.586 45.7315 44.963 45.3726 45.3808 45.0912C46.461 44.3606 47.261 43.3511 48.1118 42.3933C49.192 41.1773 50.2595 39.9535 51.3422 38.7375C51.9918 38.0094 52.6593 37.2994 53.3089 36.5714C53.6019 36.2409 54.0044 36.0266 54.2286 35.6187C54.2872 35.4973 54.4782 35.4457 54.6719 35.3218Z" fill="white"/>
<path d="M4.27103 39.4656C3.57809 39.4656 2.8877 39.4734 2.19476 39.4631C1.51965 39.4527 0.928612 39.2075 0.421644 38.7557C0.146506 38.5104 -0.0445619 38.2212 0.0446033 37.8417C0.133768 37.4699 0.424192 37.2453 0.775757 37.1808C1.15025 37.1111 1.54513 37.0672 1.92217 37.1136C2.91063 37.2324 3.88635 37.0827 4.82386 36.8555C5.75627 36.6308 6.63009 36.1558 7.54722 35.8434C8.64013 35.4742 9.74832 35.1541 10.854 34.8262C11.3762 34.6713 11.9061 34.5396 12.4335 34.4028C12.5507 34.3718 12.6729 34.3563 12.7927 34.3434C13.9009 34.2298 14.9861 34.0387 16.0408 33.6463C16.6803 33.4062 17.3605 33.2771 18.0254 33.1015C18.8865 32.8769 19.7476 32.6472 20.6137 32.438C21.4493 32.2367 22.2977 32.136 23.1537 32.2676C23.4084 32.3064 23.6708 32.3941 23.8899 32.5284C24.2975 32.7788 24.3103 33.0215 23.9103 33.2694C23.4466 33.5559 22.9601 33.8348 22.448 34.0078C21.0341 34.4854 19.5947 34.8881 18.1783 35.358C17.1414 35.7014 16.1122 36.0835 15.0982 36.4914C13.7888 37.0207 12.5048 37.6145 11.1928 38.1386C10.2527 38.5155 9.30504 38.9002 8.32932 39.1455C7.46824 39.3598 6.56385 39.4037 5.67475 39.4889C5.21109 39.5328 4.73979 39.4966 4.27103 39.4966C4.27103 39.4863 4.27103 39.476 4.27103 39.4656Z" fill="white"/>
<path d="M1.65594 40.7485C2.27246 40.8673 2.90171 40.937 3.50039 41.1126C4.66718 41.4559 5.77028 41.9542 6.79695 42.6281C7.75229 43.2529 8.44523 44.1281 9.09487 45.0446C9.76488 45.987 10.4043 46.95 11.0667 47.8975C11.4284 48.4164 11.8055 48.925 12.18 49.4336C12.4882 49.8519 12.878 50.1694 13.357 50.3605C14.432 50.7891 15.4969 51.2512 16.5924 51.6178C17.8076 52.0232 18.8597 52.6867 19.8176 53.5103C20.3246 53.9466 20.7781 54.45 21.2392 54.9406C21.3589 55.0671 21.4353 55.253 21.4812 55.426C21.5627 55.7461 21.4149 55.9397 21.0838 55.9578C20.2991 56.0017 19.5756 55.8055 18.8801 55.4311C17.9018 54.9044 16.9083 54.4036 15.902 53.9285C14.8091 53.4096 13.6805 52.9707 12.6029 52.4285C11.5176 51.8812 10.6795 51.0369 9.98907 50.0171C9.54834 49.3639 9.02608 48.7546 8.47835 48.1866C7.45168 47.1178 6.42501 46.0386 5.31681 45.0627C4.25192 44.1255 2.99342 43.5085 1.56423 43.3355C1.07 43.2761 0.680221 43.0128 0.351584 42.6849C0.0382317 42.3725 -0.0993374 41.9232 0.078993 41.4921C0.254776 41.0635 0.664936 40.8879 1.09802 40.8105C1.27635 40.7795 1.46233 40.8053 1.64575 40.8053C1.65085 40.7821 1.6534 40.7666 1.65594 40.7485Z" fill="white"/>
<path d="M55.2073 30.0114C55.1258 30.6878 55.1258 31.3694 54.9424 31.9968C54.7921 32.5054 54.4736 32.9908 54.1399 33.4116C53.6482 34.0312 53.0674 34.5786 52.54 35.1672C52.377 35.3479 52.2802 35.5881 52.1171 35.7688C51.5159 36.4297 50.9198 37.0984 50.2829 37.7232C49.0626 38.9211 47.8346 40.1113 46.5761 41.268C46.0386 41.7611 45.4246 42.1768 44.8259 42.595C43.6541 43.4109 42.3573 43.953 41.0148 44.4126C40.4034 44.6217 39.8276 44.9444 39.2493 45.2413C38.8111 45.4634 38.5971 45.7887 38.6914 46.3438C38.8952 47.5185 39.0302 48.7009 39.4047 49.8472C39.6824 50.6992 39.7767 51.6106 39.9805 52.4884C40.1741 53.3249 40.4034 54.1536 40.6148 54.985C40.6505 55.1244 40.6963 55.2586 40.7193 55.4006C40.7575 55.6304 40.6683 55.8421 40.4619 55.9067C40.3142 55.9531 40.0722 55.9273 39.9677 55.8292C39.69 55.5685 39.3843 55.287 39.2366 54.9488C38.9207 54.2156 38.6863 53.4462 38.4417 52.6846C37.9628 51.1846 37.5552 49.6639 36.7756 48.2775C36.4877 47.7663 36.289 47.1983 36.0852 46.6432C35.6521 45.4685 36.1999 43.9788 37.2775 43.2275C37.8405 42.8351 38.4697 42.564 39.127 42.3549C40.5944 41.8876 42.0542 41.3996 43.5089 40.8988C45.7201 40.1372 47.5264 38.7559 49.1619 37.1087C49.646 36.6208 50.2115 36.2154 50.6854 35.7223C51.6789 34.687 52.6801 33.6595 53.5361 32.4899C54.0329 31.8109 54.3157 31.0467 54.7029 30.3238C54.7946 30.1457 54.8277 29.8978 55.2073 30.0114Z" fill="white"/>
<path d="M27.8597 0.0560003C25.8853 0.62141 23.8956 1.00868 22.0104 1.75482C19.7303 2.65844 17.6108 3.84348 15.9548 5.72301C14.8517 6.97259 13.82 8.28672 12.7271 9.54921C11.4864 10.9821 10.0801 12.2368 8.59744 13.4116C7.13003 14.5734 5.60913 15.6525 4.02454 16.6336C3.25007 17.1138 2.45013 17.5631 1.63236 17.9632C1.34194 18.1052 0.944517 18.1336 0.620974 18.0768C0.0146512 17.9684 -0.0770621 17.6147 0.0859827 16.9305C0.208266 16.4193 0.493596 15.9494 0.939421 15.6267C1.34449 15.3324 1.74191 15.0174 2.18009 14.7773C4.10606 13.7214 5.96834 12.5699 7.60133 11.0802C8.66877 10.1069 9.70054 9.09998 10.7629 8.12149C12.1844 6.80994 13.6136 5.50872 15.2466 4.46052C16.9892 3.34261 18.7495 2.25568 20.5965 1.32108C21.3149 0.957048 22.0435 0.593013 22.8027 0.332253C23.3505 0.143783 23.9517 0.0740784 24.5325 0.0456788C25.4471 -0.003375 26.3642 0.0250202 27.2788 0.0250202C27.4724 0.0198566 27.666 0.0430914 27.8597 0.0560003Z" fill="white"/>
<path d="M15.4673 0.465842C15.2916 0.68013 15.1362 0.925399 14.9298 1.11129C13.8827 2.04847 12.8 2.94436 11.7759 3.90736C10.9607 4.67157 10.1913 5.48999 9.44487 6.3239C8.34431 7.55283 7.09345 8.56489 5.677 9.3988C4.29367 10.2146 2.839 10.8782 1.39198 11.5572C0.696491 11.8825 0.0952627 11.4436 0.0315733 10.651C-0.0805201 9.25164 0.535994 8.25249 1.69769 7.56058C2.47979 7.09328 3.30776 6.69827 4.05165 6.17675C4.93311 5.5597 5.77126 4.87552 6.58139 4.16295C7.92651 2.98308 9.22832 1.75158 10.5582 0.553629C10.9658 0.187016 11.4524 0.0140377 12.0103 0.021783C12.8637 0.0346919 13.7197 0.0114534 14.5757 0.0191987C14.8916 0.0243623 15.2406 -0.0117877 15.4673 0.465842Z" fill="white"/>
<path d="M12.4789 55.9844C11.7987 55.9844 11.1745 55.9844 10.5504 55.9844C7.74295 55.9818 4.93298 55.9921 2.12555 55.9663C1.56508 55.9611 0.999519 55.845 0.454338 55.7107C0.29384 55.672 0.105319 55.4138 0.0747484 55.2331C0.011059 54.851 0.023797 54.4534 0.0390825 54.0609C0.0518203 53.7666 0.311673 53.4852 0.635215 53.4594C0.930734 53.4361 1.24663 53.4568 1.53196 53.5394C2.11791 53.7046 2.68601 53.9344 3.26686 54.1151C3.45538 54.1745 3.66938 54.1926 3.86554 54.1694C4.16616 54.1332 4.26551 53.8776 4.08209 53.6298C3.99037 53.5033 3.83752 53.4232 3.71524 53.32C2.89237 52.6229 2.03638 51.9619 1.25682 51.221C0.487456 50.4878 0.000869008 49.579 0.0263448 48.4585C0.0339875 48.1073 0.0161538 47.7562 0.0416296 47.4077C0.0543675 47.2063 0.102772 46.9998 0.179199 46.8139C0.347339 46.4189 0.456885 46.3827 0.826284 46.5918C2.46183 47.511 3.92923 48.6702 5.33295 49.9146C6.21696 50.6995 6.91244 51.6547 7.6971 52.5325C8.19133 53.0876 8.8002 53.5652 9.4269 53.9654C10.2116 54.4663 11.0726 54.8406 11.8879 55.2924C12.1248 55.4189 12.4305 55.5093 12.4789 55.9844Z" fill="white"/>
<path d="M53.329 55.9016C52.1826 56.1185 51.2298 55.93 50.5751 54.9799C50.3636 54.6753 50.2541 54.2648 50.2031 53.8878C50.0885 53.0591 50.2286 52.2458 50.5139 51.461C50.7661 50.7665 51.0209 50.072 51.2553 49.3723C51.7801 47.7974 52.6106 46.4162 53.7901 45.2621C53.9608 45.0943 54.1799 44.9575 54.4015 44.8671C54.8397 44.689 55.148 44.8748 55.148 45.3473C55.1454 46.0676 55.0741 46.7931 54.6665 47.4179C54.0219 48.4093 53.6449 49.4937 53.4105 50.6529C53.2628 51.3938 53.0182 52.1116 52.822 52.8448C52.687 53.356 52.5265 53.8646 52.445 54.3861C52.366 54.8947 52.6004 55.2923 53.0437 55.5634C53.1481 55.6254 53.2118 55.7596 53.329 55.9016Z" fill="white"/>
<path d="M7.38101 0.108794C7.21032 0.245628 7.08803 0.377293 6.94027 0.457328C5.76584 1.10019 4.58886 1.7379 3.40679 2.36785C2.69092 2.74996 1.96995 3.11915 1.24389 3.4806C0.719093 3.74136 0.0847469 3.37474 0.0388906 2.77319C0.0108672 2.40399 0.0134147 2.02705 0.0567235 1.66044C0.10258 1.28866 0.242697 0.9582 0.599358 0.746494C1.04009 0.485734 1.49865 0.330823 2.00052 0.217224C3.71759 -0.167461 5.44994 0.113953 7.1721 0.0313359C7.22306 0.0287541 7.27656 0.0674856 7.38101 0.108794Z" fill="white"/>
<path d="M68.4854 24H70.8447V19.7891L74.7744 12.7266H72.2197L69.7432 17.4688H69.6025L67.1182 12.7266H64.5635L68.4854 19.7891V24ZM80.9541 24.2891C84.2822 24.2891 86.376 22.0078 86.376 18.3672V18.3516C86.376 14.7109 84.2744 12.4375 80.9541 12.4375C77.6338 12.4375 75.5244 14.7031 75.5244 18.3516V18.3672C75.5244 22.0078 77.6025 24.2891 80.9541 24.2891ZM80.9541 22.2891C79.0947 22.2891 77.9307 20.75 77.9307 18.3672V18.3516C77.9307 15.9609 79.1182 14.4375 80.9541 14.4375C82.7822 14.4375 83.9697 15.9609 83.9697 18.3516V18.3672C83.9697 20.75 82.79 22.2891 80.9541 22.2891ZM93.3369 24.2891C96.2432 24.2891 98.0557 22.6094 98.0557 20.1094V12.7266H95.6963V19.8984C95.6963 21.3594 94.8525 22.2891 93.3369 22.2891C91.8213 22.2891 90.9697 21.3594 90.9697 19.8984V12.7266H88.6104V20.1094C88.6104 22.6172 90.4463 24.2891 93.3369 24.2891ZM100.79 24H103.149V19.875H105.079L107.181 24H109.853L107.478 19.5234C108.767 19.0156 109.517 17.7734 109.517 16.3281V16.3125C109.517 14.0938 108.048 12.7266 105.485 12.7266H100.79V24ZM103.149 18.1562V14.5703H105.196C106.376 14.5703 107.103 15.2734 107.103 16.3594V16.375C107.103 17.4844 106.407 18.1562 105.228 18.1562H103.149ZM65.3682 43H72.7432V41.0547H67.7275V31.7266H65.3682V43ZM79.501 43.2891C82.8291 43.2891 84.9229 41.0078 84.9229 37.3672V37.3516C84.9229 33.7109 82.8213 31.4375 79.501 31.4375C76.1807 31.4375 74.0713 33.7031 74.0713 37.3516V37.3672C74.0713 41.0078 76.1494 43.2891 79.501 43.2891ZM79.501 41.2891C77.6416 41.2891 76.4775 39.75 76.4775 37.3672V37.3516C76.4775 34.9609 77.665 33.4375 79.501 33.4375C81.3291 33.4375 82.5166 34.9609 82.5166 37.3516V37.3672C82.5166 39.75 81.3369 41.2891 79.501 41.2891ZM92.0713 43.2891C95.1494 43.2891 97.0713 41.4141 97.0713 38.4219V36.9922H92.3369V38.7109H94.7744L94.7666 38.9219C94.7197 40.3438 93.6572 41.2891 92.1104 41.2891C90.251 41.2891 89.0713 39.7812 89.0713 37.3359V37.3203C89.0713 34.9219 90.1963 33.4375 92.0166 33.4375C93.3369 33.4375 94.2979 34.1016 94.6182 35.2188L94.6338 35.2969H96.9775L96.9619 35.2188C96.626 32.9688 94.6807 31.4375 92.0166 31.4375C88.7354 31.4375 86.665 33.7266 86.665 37.3438V37.3594C86.665 41.0312 88.7197 43.2891 92.0713 43.2891ZM104.267 43.2891C107.595 43.2891 109.688 41.0078 109.688 37.3672V37.3516C109.688 33.7109 107.587 31.4375 104.267 31.4375C100.946 31.4375 98.8369 33.7031 98.8369 37.3516V37.3672C98.8369 41.0078 100.915 43.2891 104.267 43.2891ZM104.267 41.2891C102.407 41.2891 101.243 39.75 101.243 37.3672V37.3516C101.243 34.9609 102.431 33.4375 104.267 33.4375C106.095 33.4375 107.282 34.9609 107.282 37.3516V37.3672C107.282 39.75 106.103 41.2891 104.267 41.2891Z" fill="white"/>
</svg>
