<svg width="115" height="56" viewBox="0 0 115 56" fill="none" xmlns="http://www.w3.org/2000/svg">
<path d="M34.755 1.26842C36.2657 1.24261 37.6184 1.37427 38.933 1.80026C39.7813 2.07393 40.5736 2.46636 41.3276 2.95689C42.5275 3.73658 43.6204 4.64277 44.586 5.70129C46.2291 7.50593 47.6532 9.47064 48.7334 11.6729C49.3473 12.9276 49.7728 14.2391 49.9333 15.6462C50.0046 16.2787 50.2058 16.9138 50.0887 17.5438C49.8976 18.5765 49.9282 19.6272 49.6989 20.6599C49.4543 21.7624 49.1588 22.8364 48.7308 23.8768C48.1755 25.2245 47.508 26.5102 46.6495 27.6823C46.168 28.3407 45.6865 29.0093 45.1184 29.5876C44.4357 30.2821 43.623 30.8424 42.9352 31.5317C41.9442 32.5257 40.7239 33.1143 39.4883 33.6797C38.91 33.9456 38.2859 34.1109 37.6847 34.3252C37.5904 34.3587 37.5012 34.4026 37.4146 34.4517C36.8261 34.7924 36.1791 34.9525 35.5218 35.0739C35.4021 35.0945 35.2645 35.0997 35.1728 35.1642C34.4365 35.678 33.5602 35.8355 32.7424 36.1375C31.3031 36.6694 29.8433 37.1418 28.3836 37.6117C27.6906 37.8337 26.9773 37.9835 26.2793 38.1849C25.6169 38.3733 24.9648 38.5928 24.3049 38.7812C23.1178 39.1169 21.923 39.4344 20.7358 39.7701C19.6633 40.0721 18.5984 40.4 17.5285 40.6995C17.0801 40.826 16.6215 40.9164 16.163 41.0093C15.7172 41.1022 15.3121 41.2726 14.9707 41.585C14.8001 41.7425 14.7924 41.9 14.9555 42.0627C15.0574 42.1633 15.1567 42.2744 15.279 42.3441C15.9133 42.7029 16.5579 43.0411 17.1896 43.4026C18.8532 44.3578 20.611 45.1401 22.165 46.3045C23.319 47.1694 24.468 48.0317 25.5354 49.0127C26.8907 50.2571 28.0982 51.6358 29.2115 53.1022C29.5198 53.5101 29.8051 53.9361 30.1006 54.3544C30.1235 54.3879 30.1567 54.4163 30.177 54.4525C30.3477 54.7933 30.6331 55.116 30.3885 55.5368C30.1643 55.9267 29.8 55.999 29.3924 55.9835C28.9237 55.968 28.4549 55.9964 27.9862 55.968C26.7888 55.8983 25.7647 55.4594 24.9291 54.5506C23.5483 53.0506 22.0606 51.6539 20.4734 50.3811C19.2506 49.4 17.8877 48.6306 16.484 47.9413C15.1414 47.283 13.7938 46.6246 12.6244 45.6719C11.6742 44.9 10.803 44.048 10.3087 42.8733C9.82469 41.7219 9.84253 40.5988 10.4234 39.4938C10.6552 39.0549 10.9991 38.7606 11.5112 38.7115C12.0181 38.6625 12.5251 38.616 13.0295 38.5566C14.0587 38.4301 15.0905 38.3346 16.1095 38.1539C17.126 37.9757 18.1271 37.715 19.1309 37.4775C19.8951 37.2967 20.6671 37.1341 21.416 36.9017C22.3 36.6255 23.1662 36.2976 24.0324 35.9671C25.1889 35.5257 26.343 35.079 27.4817 34.5962C28.5925 34.1264 29.693 33.6255 30.7834 33.104C31.6393 32.6961 32.452 32.1823 33.3233 31.8183C34.5333 31.3148 35.7078 30.7417 36.8465 30.1014C38.0999 29.3966 39.3431 28.653 40.5124 27.814C41.4194 27.166 42.1734 26.3191 42.8536 25.4129C43.9491 23.9543 44.6853 22.3252 45.2483 20.6006C45.8572 18.734 46.0457 16.808 45.8164 14.8717C45.6381 13.3743 45.0776 11.9724 44.3006 10.6737C43.3147 9.024 42.0333 7.61952 40.543 6.45257C38.4234 4.79251 36.0211 4.32522 33.4124 5.05585C32.8647 5.20818 32.2991 5.29079 31.7438 5.4173C31.2878 5.52057 30.8343 5.629 30.3834 5.74776C29.8943 5.87427 29.4153 6.03691 28.9211 6.14018C28.3479 6.26153 27.7594 6.31058 27.1888 6.43708C26.5009 6.58941 25.8055 6.74689 25.1431 6.98441C23.5483 7.5524 22.0886 8.3734 20.7791 9.47322C19.2914 10.7202 17.9463 12.1014 16.7031 13.5937C15.6204 14.8949 14.5402 16.1987 13.3887 17.4379C12.1404 18.7804 10.7851 20.0145 9.34066 21.1453C8.02358 22.1754 6.63517 23.0868 5.14995 23.8381C4.13857 24.3493 3.07624 24.7417 1.97825 25.0334C1.88145 25.0592 1.78973 25.1057 1.69547 25.1419C0.862426 25.4568 0.0956151 24.9172 0.039569 24.0162C-0.0139294 23.1565 0.426796 22.5266 0.938853 21.9457C1.21399 21.6333 1.59102 21.4009 1.95023 21.1763C3.91439 19.95 5.90147 18.7572 7.62616 17.1875C8.91777 16.0102 10.1202 14.7426 11.2437 13.3949C12.0003 12.4887 12.762 11.5877 13.5492 10.7073C14.3491 9.81143 15.1694 8.93105 16.005 8.06617C17.6202 6.39319 19.4493 5.03003 21.5918 4.11351C22.8987 3.55327 24.2464 3.13244 25.6322 2.83038C26.4958 2.64191 27.3442 2.38116 28.2052 2.17204C28.6765 2.05844 29.1606 1.98357 29.637 1.89321C31.3693 1.56016 33.1067 1.2013 34.755 1.26842Z" fill="black"/>
<path d="M0.0395106 32.3988C0.503164 32.3988 0.870011 32.3497 1.22157 32.4065C2.52846 32.6182 3.77676 32.4324 4.95882 31.8515C5.62883 31.5236 6.2759 31.1441 6.91534 30.762C7.85538 30.2017 8.76231 29.5821 9.79407 29.1974C10.7214 28.8515 11.641 28.4797 12.5836 28.1828C13.1212 28.015 13.6969 27.9634 14.2574 27.8833C17.8265 27.3773 21.4109 27.7078 24.9902 27.7129C26.4754 27.7155 27.9632 27.6897 29.4458 27.5942C30.2254 27.5451 30.9947 27.3179 31.7667 27.1707C32.3016 27.0701 32.8519 27.0081 33.3716 26.8558C34.169 26.6234 34.974 26.3859 35.7281 26.0451C36.7216 25.5985 37.6948 25.0873 38.6374 24.5374C39.9086 23.7912 41.0015 22.8153 41.7734 21.5374C42.204 20.8248 42.5555 20.0374 42.5708 19.1699C42.5835 18.3876 42.6447 17.5821 42.4944 16.8257C42.3135 15.904 41.9568 15.0107 41.4295 14.2129C40.3035 12.5012 38.8692 11.1768 36.9152 10.4875C35.9803 10.157 35.0275 9.94015 34.0518 10.0718C33.1347 10.1957 32.215 10.3377 31.3234 10.6321C29.3337 11.2904 27.5861 12.367 25.9175 13.6269C23.212 15.6691 20.909 18.1424 18.5474 20.5589C17.266 21.8704 16.0024 23.2078 14.6344 24.4264C13.0549 25.8334 11.3226 27.0572 9.45015 28.0486C8.27063 28.6733 7.058 29.2181 5.79442 29.6621C4.75502 30.0262 3.71307 30.3257 2.62782 30.4909C2.24823 30.5503 1.87884 30.6923 1.49925 30.7103C0.653469 30.7491 0.0904615 30.1191 0.0165826 29.2697C-0.0674864 28.2706 0.640732 27.4599 1.32857 27.2069C1.77949 27.0391 2.27626 27.0107 2.75265 26.91C3.9398 26.6621 5.13206 26.453 6.23514 25.8954C6.99177 25.5133 7.79424 25.2164 8.55341 24.8394C9.8068 24.2172 10.9456 23.4091 12.0716 22.5727C14.2472 20.9539 16.1782 19.0563 18.1245 17.1794C19.1334 16.2061 20.0785 15.1682 21.1001 14.2104C22.6184 12.7878 24.2285 11.4711 26.0117 10.4023C26.7378 9.96597 27.5326 9.63293 28.3224 9.32053C29.2191 8.96683 30.1311 8.62604 31.0635 8.38852C32.6099 7.99609 34.2021 7.81537 35.779 8.10711C37.1573 8.3627 38.3979 9.0133 39.5265 9.87302C41.2639 11.1975 42.5937 12.8524 43.4446 14.8713C43.7732 15.651 44.0891 16.4668 44.0586 17.3549C44.0509 17.5563 44.1172 17.7603 44.1426 17.9668C44.1707 18.2121 44.2242 18.4599 44.2063 18.7026C44.0229 21.0443 43.0905 22.9909 41.2715 24.4909C40.1837 25.3868 39.0272 26.1742 37.7942 26.83C37.1216 27.1888 36.421 27.5038 35.6619 27.6897C34.9052 27.873 34.1868 28.2138 33.4429 28.4642C33.0251 28.6062 32.5997 28.7405 32.1666 28.8231C31.01 29.0425 29.8509 29.2387 28.6892 29.4298C27.6473 29.6002 26.6053 29.7835 25.5557 29.8971C24.2616 30.0365 22.9572 30.0933 21.6631 30.2224C20.453 30.3437 19.248 30.5064 18.0405 30.6664C17.3577 30.7568 16.6699 30.842 15.9973 30.984C15.2051 31.1492 14.4179 31.3429 13.6434 31.5752C12.4206 31.9418 11.2105 32.3446 9.99787 32.7448C9.36353 32.9539 8.74957 33.2301 8.10759 33.4083C6.78287 33.7774 5.47852 34.2138 4.09266 34.3816C3.24432 34.4849 2.40363 34.5701 1.55275 34.552C1.1961 34.5442 0.841987 34.4306 0.487878 34.3558C0.179625 34.2912 0.0522479 34.0589 0.0420577 33.7697C0.0267724 33.3308 0.0395106 32.9022 0.0395106 32.3988Z" fill="black"/>
<path d="M41.2918 0.354257C41.2485 0.158044 41.3428 0.0341204 41.5415 0.0315387C42.642 0.0289569 43.7528 -0.0588242 44.838 0.0702634C46.0838 0.217423 47.1767 0.816395 48.1396 1.65805C49.444 2.80176 50.705 3.9842 51.859 5.28024C52.8806 6.42912 53.7366 7.70192 54.3582 9.1193C54.7123 9.92739 54.9951 10.7665 55.0256 11.6675C55.0384 12.0212 55.1454 12.3284 55.3594 12.6356C55.5581 12.9222 55.6778 13.3121 55.7007 13.6658C55.7644 14.652 56.0905 15.6124 55.9759 16.609C55.8587 17.6288 55.7186 18.6485 55.5912 19.6683C55.5275 20.1769 55.4333 20.6675 55.1709 21.127C55.0562 21.3284 55.069 21.6072 55.0307 21.8499C54.9314 22.5005 54.9008 23.1718 54.725 23.7991C54.4983 24.6072 54.2104 25.4076 53.8487 26.164C53.2577 27.3981 52.5851 28.5909 51.9457 29.7991C51.8896 29.905 51.8183 30.0082 51.7368 30.0986C51.0922 30.8241 50.5751 31.6476 49.9841 32.4144C49.0848 33.5814 48.0352 34.5934 46.8786 35.51C46.3614 35.9205 45.8901 36.4007 45.3424 36.7905C44.0126 37.7354 42.5911 38.5074 41.0957 39.1373C40.5199 39.38 39.9085 39.5349 39.3098 39.7208C38.245 40.0487 37.1801 40.374 36.1127 40.6889C35.7254 40.8025 35.3306 40.8929 34.9357 40.9755C34.4033 41.0865 33.8632 41.1666 33.3333 41.2802C32.1818 41.5306 31.0303 41.7784 29.8839 42.0599C29.5604 42.1399 29.219 42.2767 29.0789 42.7543C29.3133 42.9325 29.54 43.1907 29.8228 43.3017C30.452 43.5469 30.9411 43.9807 31.3921 44.4402C32.4748 45.5426 33.2467 46.8619 33.8555 48.287C34.444 49.6605 34.9408 51.065 35.3815 52.4927C35.5802 53.1356 35.8477 53.7578 36.0821 54.3903C36.1178 54.4858 36.1407 54.5891 36.1585 54.6898C36.3216 55.627 35.6388 56.2285 34.7395 55.9161C33.825 55.596 33.1422 55.0099 32.6709 54.1244C31.8022 52.4979 31.1042 50.7965 30.4138 49.0925C29.9043 47.8404 29.1069 46.8258 28.0853 45.9841C27.4714 45.4781 26.8294 45.0108 26.19 44.5358C25.5302 44.0452 24.799 43.7251 23.9889 43.5676C23.3724 43.4488 22.7661 43.2862 22.1597 43.1261C21.7267 43.0125 21.4643 42.6795 21.4668 42.3C21.4694 41.9127 21.8235 41.4506 22.2209 41.3576C22.417 41.3111 22.6259 41.3111 22.8272 41.306C23.4998 41.2879 24.1749 41.3137 24.8423 41.2543C26.0957 41.1433 27.3466 40.9962 28.5974 40.8464C29.3617 40.7561 30.1234 40.6451 30.8851 40.5211C31.3462 40.4463 31.8022 40.3404 32.2531 40.2191C33.425 39.9041 34.6096 39.6253 35.756 39.238C37.1572 38.763 38.5252 38.1976 39.8423 37.5108C41.0269 36.8938 42.1733 36.2199 43.228 35.3912C43.8088 34.9342 44.4482 34.5341 44.9552 34.0022C45.2533 33.6898 45.5411 33.3413 45.8265 33.0057C46.3818 32.3525 46.9576 31.7148 47.4492 31.0151C48.3052 29.8017 49.1434 28.5728 49.9178 27.3052C50.6184 26.1589 51.2425 24.9635 51.8641 23.7682C52.524 22.5005 53.0793 21.1735 53.4181 19.7845C53.813 18.1683 54.1646 16.5238 53.9761 14.8379C53.7824 13.0978 53.4283 11.399 52.6437 9.80863C51.831 8.16147 50.6235 6.86544 49.3115 5.63652C47.7549 4.17783 45.9946 3.02121 44.1807 1.93946C43.2331 1.37663 42.2573 0.883516 41.2918 0.354257Z" fill="black"/>
<path d="M19.1951 25.2912C19.0372 24.9013 19.2129 24.7413 19.4499 24.6303C19.5569 24.5812 19.6868 24.576 19.8065 24.5683C21.7172 24.465 23.6278 24.3979 25.5359 24.2559C26.4607 24.1862 27.3753 23.9513 28.3 23.848C29.4413 23.7215 30.5342 23.4013 31.6042 23.0141C33.0512 22.49 34.4753 21.8833 35.5784 20.7421C36.2662 20.0322 36.8521 19.2525 36.977 18.2094C37.0025 17.99 37.1528 17.7783 37.1528 17.5614C37.1579 16.3015 36.6331 15.3566 35.2599 15.2353C34.5517 15.1733 33.8231 15.1475 33.1251 15.2508C32.4143 15.354 31.7112 15.5864 31.0386 15.8497C29.798 16.3351 28.779 17.1897 27.7243 17.9874C27.095 18.465 26.4199 18.8781 25.7652 19.3196C25.378 19.5804 24.9806 19.8282 24.601 20.1019C24.466 20.2 24.3743 20.36 24.1806 20.5898C24.4991 20.626 24.6927 20.6673 24.8889 20.6699C25.5793 20.6724 26.2645 20.6699 26.9498 20.4969C27.6173 20.3265 28.3204 20.311 28.9955 20.169C30.2336 19.9057 31.4259 19.5003 32.4041 18.6458C32.8143 18.2895 33.1786 17.8687 33.5225 17.4452C33.7034 17.2232 33.8384 17.0038 34.1594 17.138C34.409 17.2439 34.5899 17.7034 34.5135 17.9745C34.2919 18.749 33.8562 19.3841 33.2117 19.8411C32.1774 20.5769 31.059 21.1578 29.8209 21.4573C29.0337 21.6483 28.2262 21.7516 27.4466 21.9607C26.1219 22.317 24.7793 22.2163 23.4419 22.1621C22.782 22.1363 22.2267 21.8316 21.8471 21.2198C21.5159 20.6879 21.5822 20.1587 21.7809 19.6397C22.0229 18.9995 22.4891 18.4986 22.9884 18.0545C23.9616 17.1897 24.9576 16.348 25.9639 15.5218C26.7817 14.8506 27.6147 14.1922 28.4682 13.57C29.2579 12.9917 30.1394 12.62 31.0972 12.3669C32.4933 11.9978 33.8537 12.2275 35.2064 12.4651C36.0318 12.6096 36.8572 12.8626 37.5731 13.3712C38.3603 13.9289 38.9157 14.6156 39.2163 15.5786C39.4659 16.3764 39.5296 17.169 39.4379 17.9564C39.3284 18.9117 39.0303 19.8359 38.5437 20.6853C37.6139 22.3093 36.1567 23.2748 34.5211 24.0029C33.4308 24.4908 32.292 24.8291 31.1176 25.0795C30.2667 25.2602 29.4133 25.4203 28.5573 25.57C26.6288 25.9134 24.6978 25.792 22.7719 25.7146C21.5643 25.6552 20.3619 25.4306 19.1951 25.2912Z" fill="black"/>
<path d="M54.6717 35.3214C54.7813 35.5202 54.8908 35.639 54.9112 35.7681C55.0793 36.8188 55.2908 37.8541 55.1124 38.9436C54.8857 40.3171 54.1418 41.3472 53.2553 42.3386C52.2923 43.4178 51.4134 44.5744 50.4402 45.6433C49.8416 46.3016 49.1333 46.8593 48.4735 47.4608C47.9487 47.9384 47.3144 48.3128 47.0087 48.9918C46.838 49.3739 46.6469 49.7844 46.6266 50.1923C46.5603 51.429 46.5603 52.6682 46.5578 53.9074C46.5578 54.1888 46.6138 54.4806 46.6902 54.7543C46.8456 55.3119 46.4813 55.8773 45.9005 55.9625C45.3681 56.04 44.884 55.8463 44.4433 55.614C43.5975 55.1699 43.0931 54.4289 42.79 53.5047C42.5428 52.7482 42.497 51.9685 42.4027 51.2018C42.2983 50.3679 42.5454 49.5417 42.7416 48.7207C42.9887 47.6828 43.5568 46.8618 44.2446 46.1054C44.586 45.731 44.963 45.3722 45.3808 45.0908C46.461 44.3601 47.2609 43.3507 48.1118 42.3928C49.1919 41.1768 50.2594 39.9531 51.3421 38.7371C51.9917 38.009 52.6591 37.299 53.3088 36.571C53.6017 36.2405 54.0043 36.0262 54.2284 35.6183C54.287 35.497 54.4781 35.4453 54.6717 35.3214Z" fill="black"/>
<path d="M4.27098 39.4652C3.57805 39.4652 2.88766 39.4729 2.19473 39.4626C1.51963 39.4523 0.928602 39.207 0.42164 38.7552C0.146505 38.5099 -0.0445611 38.2208 0.044603 37.8413C0.133767 37.4695 0.424187 37.2449 0.775749 37.1803C1.15024 37.1106 1.54511 37.0667 1.92214 37.1132C2.91059 37.232 3.8863 37.0822 4.8238 36.855C5.7562 36.6304 6.63001 36.1554 7.54713 35.843C8.64003 35.4738 9.74821 35.1537 10.8538 34.8258C11.3761 34.6709 11.906 34.5392 12.4333 34.4024C12.5505 34.3714 12.6728 34.3559 12.7925 34.343C13.9007 34.2294 14.986 34.0384 16.0406 33.6459C16.6801 33.4058 17.3603 33.2767 18.0252 33.1012C18.8863 32.8766 19.7473 32.6468 20.6135 32.4377C21.4491 32.2363 22.2974 32.1356 23.1534 32.2673C23.4082 32.306 23.6705 32.3938 23.8896 32.528C24.2972 32.7785 24.31 33.0211 23.91 33.269C23.4464 33.5556 22.9598 33.8344 22.4477 34.0074C21.0338 34.485 19.5945 34.8877 18.178 35.3576C17.1412 35.701 16.112 36.0831 15.0981 36.491C13.7886 37.0203 12.5047 37.6141 11.1927 38.1382C10.2526 38.5151 9.30493 38.8998 8.32922 39.1451C7.46815 39.3593 6.56377 39.4032 5.67468 39.4884C5.21103 39.5323 4.73973 39.4962 4.27098 39.4962C4.27098 39.4858 4.27098 39.4755 4.27098 39.4652Z" fill="black"/>
<path d="M1.65592 40.7482C2.27243 40.8669 2.90167 40.9366 3.50035 41.1122C4.66712 41.4556 5.77021 41.9538 6.79687 42.6277C7.7522 43.2525 8.44514 44.1277 9.09476 45.0442C9.76476 45.9865 10.4042 46.9495 11.0666 47.897C11.4283 48.416 11.8053 48.9246 12.1798 49.4332C12.4881 49.8514 12.8779 50.169 13.3568 50.36C14.4319 50.7886 15.4967 51.2507 16.5922 51.6173C17.8074 52.0227 18.8595 52.6862 19.8174 53.5098C20.3243 53.9461 20.7778 54.4495 21.2389 54.94C21.3586 55.0665 21.4351 55.2524 21.4809 55.4254C21.5625 55.7455 21.4147 55.9392 21.0835 55.9573C20.2989 56.0011 19.5754 55.8049 18.8799 55.4306C17.9016 54.9039 16.9081 54.403 15.9018 53.928C14.8089 53.4091 13.6803 52.9702 12.6027 52.428C11.5175 51.8807 10.6793 51.0364 9.98895 50.0167C9.54822 49.3635 9.02598 48.7542 8.47825 48.1862C7.45159 47.1173 6.42493 46.0382 5.31675 45.0623C4.25187 44.1251 2.99338 43.5081 1.56421 43.3351C1.06999 43.2757 0.680213 43.0124 0.35158 42.6845C0.0382313 42.3721 -0.0993362 41.9229 0.0789921 41.4917C0.254773 41.0631 0.664928 40.8876 1.09801 40.8101C1.27634 40.7791 1.46231 40.805 1.64573 40.805C1.65083 40.7817 1.65338 40.7662 1.65592 40.7482Z" fill="black"/>
<path d="M55.2071 30.011C55.1256 30.6875 55.1256 31.369 54.9422 31.9964C54.7918 32.505 54.4734 32.9904 54.1397 33.4112C53.648 34.0308 53.0672 34.5782 52.5398 35.1668C52.3768 35.3475 52.28 35.5876 52.1169 35.7683C51.5157 36.4293 50.9196 37.098 50.2827 37.7227C49.0624 38.9207 47.8345 40.1109 46.576 41.2675C46.0385 41.7606 45.4245 42.1763 44.8258 42.5945C43.654 43.4103 42.3573 43.9525 41.0147 44.412C40.4033 44.6212 39.8276 44.9439 39.2493 45.2408C38.8111 45.4628 38.5971 45.7881 38.6914 46.3432C38.8952 47.5179 39.0302 48.7003 39.4047 49.8466C39.6823 50.6986 39.7766 51.61 39.9804 52.4878C40.174 53.3242 40.4033 54.153 40.6147 54.9843C40.6504 55.1237 40.6963 55.258 40.7192 55.4C40.7574 55.6298 40.6682 55.8414 40.4619 55.906C40.3141 55.9525 40.0721 55.9267 39.9677 55.8285C39.69 55.5678 39.3843 55.2864 39.2365 54.9482C38.9206 54.215 38.6863 53.4456 38.4417 52.684C37.9628 51.184 37.5551 49.6633 36.7756 48.2769C36.4877 47.7657 36.289 47.1978 36.0852 46.6427C35.6521 45.468 36.1998 43.9783 37.2775 43.227C37.8405 42.8346 38.4697 42.5635 39.127 42.3544C40.5944 41.8871 42.0541 41.3991 43.5088 40.8983C45.72 40.1367 47.5262 38.7554 49.1618 37.1083C49.6458 36.6203 50.2114 36.215 50.6852 35.7219C51.6787 34.6866 52.6799 33.6591 53.5359 32.4895C54.0327 31.8105 54.3155 31.0463 54.7027 30.3234C54.7944 30.1453 54.8275 29.8974 55.2071 30.011Z" fill="black"/>
<path d="M27.8593 0.0558777C25.885 0.621281 23.8954 1.00855 22.0102 1.75467C19.7301 2.65829 17.6106 3.84331 15.9547 5.72282C14.8516 6.97239 13.8198 8.2865 12.7269 9.54898C11.4863 10.9818 10.08 12.2366 8.59734 13.4113C7.12995 14.5731 5.60906 15.6522 4.02449 16.6333C3.25003 17.1135 2.4501 17.5627 1.63234 17.9629C1.34192 18.1049 0.944506 18.1333 0.620967 18.0765C0.0146512 17.9681 -0.0770611 17.6144 0.0859819 16.9302C0.208264 16.419 0.49359 15.9491 0.939411 15.6264C1.34447 15.3321 1.74189 15.0171 2.18007 14.777C4.10601 13.7211 5.96827 12.5696 7.60124 11.08C8.66867 10.1066 9.70042 9.09975 10.7628 8.12127C12.1843 6.80974 13.6135 5.50853 15.2464 4.46034C16.989 3.34245 18.7493 2.25554 20.5963 1.32094C21.3147 0.956915 22.0433 0.592884 22.8025 0.332127C23.3502 0.143659 23.9514 0.0739557 24.5322 0.0455564C25.4468 -0.00349683 26.3639 0.024898 27.2785 0.024898C27.4721 0.0197345 27.6657 0.042969 27.8593 0.0558777Z" fill="black"/>
<path d="M15.4672 0.465592C15.2914 0.679878 15.136 0.925144 14.9296 1.11103C13.8826 2.04821 12.7999 2.94408 11.7758 3.90707C10.9605 4.67127 10.1912 5.48968 9.44476 6.32358C8.34422 7.5525 7.09337 8.56455 5.67694 9.39845C4.29362 10.2143 2.83897 10.8778 1.39196 11.5568C0.696483 11.8821 0.0952618 11.4432 0.0315731 10.6506C-0.0805189 9.25129 0.535988 8.25215 1.69767 7.56025C2.47977 7.09295 3.30772 6.69794 4.0516 6.17643C4.93305 5.55939 5.7712 4.87522 6.58132 4.16266C7.92642 2.9828 9.22822 1.75131 10.558 0.553379C10.9656 0.18677 11.4522 0.0137936 12.0101 0.0215389C12.8636 0.0344476 13.7195 0.0112093 14.5755 0.0189546C14.8914 0.0241181 15.2404 -0.0120315 15.4672 0.465592Z" fill="black"/>
<path d="M12.4788 55.9835C11.7986 55.9835 11.1744 55.9835 10.5503 55.9835C7.74286 55.9809 4.93292 55.9913 2.12552 55.9654C1.56506 55.9603 0.999508 55.8441 0.454333 55.7099C0.293837 55.6711 0.105318 55.4129 0.0747478 55.2322C0.0110591 54.8501 0.023797 54.4525 0.0390823 54.0601C0.05182 53.7658 0.31167 53.4844 0.635208 53.4586C0.930724 53.4353 1.24662 53.456 1.53194 53.5386C2.11788 53.7038 2.68598 53.9336 3.26682 54.1143C3.45534 54.1737 3.66934 54.1918 3.8655 54.1685C4.16611 54.1324 4.26546 53.8768 4.08204 53.629C3.99033 53.5025 3.83747 53.4224 3.71519 53.3192C2.89233 52.6221 2.03636 51.9612 1.25681 51.2202C0.48745 50.487 0.000869295 49.5782 0.0263448 48.4577C0.0339874 48.1066 0.016154 47.7555 0.0416294 47.4069C0.0543672 47.2056 0.102771 46.999 0.179197 46.8131C0.347335 46.4181 0.45688 46.382 0.826274 46.5911C2.4618 47.5102 3.92919 48.6694 5.33288 49.9138C6.21688 50.6987 6.91236 51.6539 7.69701 52.5317C8.19123 53.0868 8.8001 53.5644 9.42679 53.9646C10.2114 54.4655 11.0725 54.8398 11.8877 55.2916C12.1246 55.4181 12.4303 55.5085 12.4788 55.9835Z" fill="black"/>
<path d="M53.328 55.9009C52.1816 56.1178 51.2288 55.9293 50.5741 54.9792C50.3626 54.6746 50.2531 54.2641 50.2021 53.8871C50.0875 53.0584 50.2276 52.2451 50.5129 51.4603C50.7652 50.7658 51.0199 50.0713 51.2543 49.3716C51.7791 47.7968 52.6096 46.4155 53.7891 45.2615C53.9598 45.0937 54.1789 44.9569 54.4005 44.8665C54.8387 44.6883 55.1469 44.8742 55.1469 45.3467C55.1444 46.067 55.0731 46.7925 54.6655 47.4173C54.0209 48.4087 53.6439 49.493 53.4095 50.6522C53.2618 51.3932 53.0172 52.1109 52.821 52.8441C52.686 53.3553 52.5255 53.8639 52.444 54.3854C52.365 54.894 52.5994 55.2916 53.0427 55.5627C53.1471 55.6246 53.2108 55.7589 53.328 55.9009Z" fill="black"/>
<path d="M7.3819 0.108671C7.21121 0.245504 7.08893 0.377167 6.94117 0.457201C5.76675 1.10006 4.58979 1.73776 3.40772 2.3677C2.69186 2.7498 1.97091 3.11899 1.24486 3.48044C0.720062 3.74119 0.0857227 3.37458 0.0398669 2.77303C0.0118439 2.40384 0.0143914 2.02691 0.0576997 1.6603C0.103555 1.28853 0.243671 0.958067 0.600327 0.746363C1.04105 0.485607 1.49961 0.330697 2.00148 0.2171C3.71852 -0.167581 5.45086 0.11383 7.173 0.0312136C7.22395 0.0286318 7.27745 0.0673628 7.3819 0.108671Z" fill="black"/>
<path d="M68.4844 23.9996H70.8438V19.7887L74.7734 12.7262H72.2188L69.7422 17.4684H69.6016L67.1172 12.7262H64.5625L68.4844 19.7887V23.9996ZM80.9531 24.2887C84.2812 24.2887 86.375 22.0074 86.375 18.3668V18.3512C86.375 14.7106 84.2734 12.4371 80.9531 12.4371C77.6328 12.4371 75.5234 14.7028 75.5234 18.3512V18.3668C75.5234 22.0074 77.6016 24.2887 80.9531 24.2887ZM80.9531 22.2887C79.0938 22.2887 77.9297 20.7496 77.9297 18.3668V18.3512C77.9297 15.9606 79.1172 14.4371 80.9531 14.4371C82.7812 14.4371 83.9688 15.9606 83.9688 18.3512V18.3668C83.9688 20.7496 82.7891 22.2887 80.9531 22.2887ZM93.3359 24.2887C96.2422 24.2887 98.0547 22.609 98.0547 20.109V12.7262H95.6953V19.8981C95.6953 21.359 94.8516 22.2887 93.3359 22.2887C91.8203 22.2887 90.9688 21.359 90.9688 19.8981V12.7262H88.6094V20.109C88.6094 22.6168 90.4453 24.2887 93.3359 24.2887ZM100.789 23.9996H103.148V19.8746H105.078L107.18 23.9996H109.852L107.477 19.5231C108.766 19.0153 109.516 17.7731 109.516 16.3278V16.3121C109.516 14.0934 108.047 12.7262 105.484 12.7262H100.789V23.9996ZM103.148 18.1559V14.5699H105.195C106.375 14.5699 107.102 15.2731 107.102 16.359V16.3746C107.102 17.484 106.406 18.1559 105.227 18.1559H103.148ZM65.3672 42.9996H72.7422V41.0543H67.7266V31.7262H65.3672V42.9996ZM79.5 43.2887C82.8281 43.2887 84.9219 41.0074 84.9219 37.3668V37.3512C84.9219 33.7106 82.8203 31.4371 79.5 31.4371C76.1797 31.4371 74.0703 33.7028 74.0703 37.3512V37.3668C74.0703 41.0074 76.1484 43.2887 79.5 43.2887ZM79.5 41.2887C77.6406 41.2887 76.4766 39.7496 76.4766 37.3668V37.3512C76.4766 34.9606 77.6641 33.4371 79.5 33.4371C81.3281 33.4371 82.5156 34.9606 82.5156 37.3512V37.3668C82.5156 39.7496 81.3359 41.2887 79.5 41.2887ZM92.0703 43.2887C95.1484 43.2887 97.0703 41.4137 97.0703 38.4215V36.9918H92.3359V38.7106H94.7734L94.7656 38.9215C94.7188 40.3434 93.6562 41.2887 92.1094 41.2887C90.25 41.2887 89.0703 39.7809 89.0703 37.3356V37.3199C89.0703 34.9215 90.1953 33.4371 92.0156 33.4371C93.3359 33.4371 94.2969 34.1012 94.6172 35.2184L94.6328 35.2965H96.9766L96.9609 35.2184C96.625 32.9684 94.6797 31.4371 92.0156 31.4371C88.7344 31.4371 86.6641 33.7262 86.6641 37.3434V37.359C86.6641 41.0309 88.7188 43.2887 92.0703 43.2887ZM104.266 43.2887C107.594 43.2887 109.688 41.0074 109.688 37.3668V37.3512C109.688 33.7106 107.586 31.4371 104.266 31.4371C100.945 31.4371 98.8359 33.7028 98.8359 37.3512V37.3668C98.8359 41.0074 100.914 43.2887 104.266 43.2887ZM104.266 41.2887C102.406 41.2887 101.242 39.7496 101.242 37.3668V37.3512C101.242 34.9606 102.43 33.4371 104.266 33.4371C106.094 33.4371 107.281 34.9606 107.281 37.3512V37.3668C107.281 39.7496 106.102 41.2887 104.266 41.2887Z" fill="black"/>
</svg>
